<svg width="40" height="40" viewBox="0 0 40 40" fill="none" xmlns="http://www.w3.org/2000/svg">
<circle cx="20" cy="20" r="19.4444" stroke="#58595E" stroke-width="1.11111"/>
<path d="M20.0062 16.5044C18.0739 16.5044 16.5153 18.063 16.5153 19.9953C16.5153 21.9276 18.0739 23.4862 20.0062 23.4862C21.9385 23.4862 23.4971 21.9276 23.4971 19.9953C23.4971 18.063 21.9385 16.5044 20.0062 16.5044ZM20.0062 22.2649C18.7575 22.2649 17.7367 21.2471 17.7367 19.9953C17.7367 18.7436 18.7544 17.7258 20.0062 17.7258C21.2579 17.7258 22.2757 18.7436 22.2757 19.9953C22.2757 21.2471 21.2549 22.2649 20.0062 22.2649ZM24.4541 16.3617C24.4541 16.8143 24.0895 17.1759 23.6399 17.1759C23.1872 17.1759 22.8256 16.8113 22.8256 16.3617C22.8256 15.912 23.1902 15.5474 23.6399 15.5474C24.0895 15.5474 24.4541 15.912 24.4541 16.3617ZM26.7662 17.188C26.7145 16.0973 26.4654 15.1312 25.6663 14.3352C24.8703 13.5392 23.9042 13.29 22.8135 13.2354C21.6893 13.1715 18.32 13.1715 17.1959 13.2354C16.1082 13.287 15.142 13.5361 14.343 14.3321C13.5439 15.1281 13.2979 16.0943 13.2432 17.185C13.1794 18.3091 13.1794 21.6785 13.2432 22.8026C13.2948 23.8933 13.5439 24.8595 14.343 25.6555C15.142 26.4515 16.1051 26.7006 17.1959 26.7553C18.32 26.8191 21.6893 26.8191 22.8135 26.7553C23.9042 26.7037 24.8703 26.4545 25.6663 25.6555C26.4623 24.8595 26.7115 23.8933 26.7662 22.8026C26.83 21.6785 26.83 18.3122 26.7662 17.188ZM25.3139 24.0088C25.0769 24.6043 24.6182 25.063 24.0196 25.3031C23.1234 25.6585 20.9966 25.5765 20.0062 25.5765C19.0157 25.5765 16.886 25.6555 15.9927 25.3031C15.3972 25.0661 14.9385 24.6073 14.6985 24.0088C14.343 23.1125 14.425 20.9858 14.425 19.9953C14.425 19.0049 14.346 16.8751 14.6985 15.9819C14.9354 15.3864 15.3942 14.9276 15.9927 14.6876C16.889 14.3321 19.0157 14.4142 20.0062 14.4142C20.9966 14.4142 23.1264 14.3352 24.0196 14.6876C24.6151 14.9246 25.0739 15.3834 25.3139 15.9819C25.6694 16.8781 25.5873 19.0049 25.5873 19.9953C25.5873 20.9858 25.6694 23.1156 25.3139 24.0088Z" fill="#58595E"/>
</svg>
