<svg width="40" height="40" viewBox="0 0 40 40" fill="none" xmlns="http://www.w3.org/2000/svg">
<circle cx="20" cy="20" r="19.4444" stroke="#58595E" stroke-width="1.11111"/>
<g clip-path="url(#clip0_346_42131)">
<path d="M16.242 25.8296H13.4201V16.7423H16.242V25.8296ZM14.8296 15.5027C13.9272 15.5027 13.1953 14.7553 13.1953 13.853C13.1953 13.4196 13.3675 13.0039 13.674 12.6974C13.9805 12.3909 14.3961 12.2188 14.8296 12.2188C15.263 12.2188 15.6787 12.3909 15.9851 12.6974C16.2916 13.0039 16.4638 13.4196 16.4638 13.853C16.4638 14.7553 15.7316 15.5027 14.8296 15.5027ZM26.8034 25.8296H23.9876V21.4059C23.9876 20.3517 23.9663 18.9997 22.5204 18.9997C21.0533 18.9997 20.8285 20.1451 20.8285 21.33V25.8296H18.0096V16.7423H20.7161V17.9819H20.7556C21.1323 17.2679 22.0526 16.5145 23.4255 16.5145C26.2814 16.5145 26.8064 18.3951 26.8064 20.8378V25.8296H26.8034Z" fill="#58595E"/>
</g>
<defs>
<clipPath id="clip0_346_42131">
<rect width="15.5556" height="15.5556" fill="white" transform="translate(12.2266 12.2188)"/>
</clipPath>
</defs>
</svg>
