<svg width="40" height="40" viewBox="0 0 40 40" fill="none" xmlns="http://www.w3.org/2000/svg">
<circle cx="20" cy="20" r="19.4444" stroke="#58595E" stroke-width="1.11111"/>
<g clip-path="url(#clip0_346_42135)">
<path d="M26.1753 16.8283C26.1852 16.9665 26.1852 17.1047 26.1852 17.2429C26.1852 21.4574 22.9774 26.3136 17.1144 26.3136C15.3081 26.3136 13.6302 25.7905 12.2188 24.8825C12.4754 24.912 12.7221 24.9219 12.9886 24.9219C14.479 24.9219 15.851 24.4185 16.9466 23.5598C15.545 23.5302 14.3705 22.6123 13.9658 21.3489C14.1632 21.3785 14.3606 21.3982 14.5679 21.3982C14.8541 21.3982 15.1404 21.3587 15.4068 21.2897C13.9461 20.9935 12.8504 19.7104 12.8504 18.1608V18.1213C13.2748 18.3582 13.7684 18.5063 14.2915 18.526C13.4328 17.9535 12.8702 16.9763 12.8702 15.8709C12.8702 15.2787 13.0281 14.7358 13.3044 14.262C14.8738 16.1966 17.2328 17.46 19.878 17.5982C19.8287 17.3613 19.7991 17.1145 19.7991 16.8678C19.7991 15.1109 21.2204 13.6797 22.9872 13.6797C23.9051 13.6797 24.7342 14.0646 25.3166 14.6865C26.0371 14.5483 26.728 14.2818 27.34 13.9166C27.103 14.6569 26.5997 15.2787 25.9384 15.6735C26.58 15.6044 27.2018 15.4267 27.7742 15.18C27.34 15.8116 26.7971 16.3742 26.1753 16.8283Z" fill="#58595E"/>
</g>
<defs>
<clipPath id="clip0_346_42135">
<rect width="15.5556" height="15.5556" fill="white" transform="translate(12.2188 12.2188)"/>
</clipPath>
</defs>
</svg>
