<svg width="269" height="60" viewBox="0 0 269 60" fill="none" xmlns="http://www.w3.org/2000/svg">
<path d="M52.7892 13.0947C53.0888 14.0069 53.3674 14.8413 53.628 15.6816C53.7044 15.9318 53.8197 16.0306 54.0908 16.0246C54.9791 16.0081 55.8673 16.0246 56.8709 16.0246C56.2298 16.492 55.6831 16.8949 55.1334 17.2918C54.341 17.8625 54.3395 17.861 54.6421 18.7897C54.8608 19.4283 55.0443 20.0784 55.1918 20.737C54.7424 20.4105 54.2931 20.0794 53.8317 19.7574C53.4842 19.5117 53.1292 19.0878 52.7832 19.0878C52.4372 19.0878 52.0762 19.5147 51.7347 19.7619C51.2778 20.0869 50.8269 20.418 50.2787 20.8104C50.403 20.412 50.4944 20.1169 50.5888 19.8233C50.7655 19.2766 50.9303 18.7253 51.128 18.1861C51.2194 17.9314 51.1625 17.7906 50.9468 17.6394C50.2263 17.1346 49.5223 16.6103 48.7344 16.0366C48.9351 16.0246 49.0489 16.0126 49.1613 16.0126C49.9447 16.0126 50.7281 16.0037 51.5115 16.0126C51.6066 16.0278 51.7038 16.0049 51.782 15.9488C51.8603 15.8927 51.9132 15.808 51.9294 15.7131C52.1571 14.9641 52.4072 14.2226 52.6499 13.4782C52.6753 13.3763 52.7218 13.27 52.7892 13.0947Z" fill="#FFCC05"/>
<path d="M26.1016 55.1976C27.0003 55.1976 27.8211 55.1976 28.6345 55.1976C29.2861 55.1976 29.1603 55.292 29.3834 54.6464C29.6396 53.8825 29.8807 53.1155 30.1638 52.2498C30.414 53.0182 30.6357 53.6847 30.8499 54.3468C31.121 55.1946 31.1195 55.1961 32.0018 55.1961H34.2037C34.0868 55.301 34.0254 55.3669 33.955 55.4178C33.3034 55.8942 32.6548 56.3765 31.9928 56.8378C31.9473 56.8604 31.9068 56.8918 31.8735 56.9301C31.8402 56.9684 31.8148 57.013 31.7988 57.0611C31.7828 57.1093 31.7765 57.1602 31.7802 57.2108C31.7839 57.2614 31.7976 57.3108 31.8205 57.3561C32.0827 58.1185 32.3253 58.8885 32.5695 59.6554C32.5979 59.7438 32.6249 59.8336 32.6758 59.9984C31.8984 59.4337 31.1779 58.9274 30.4814 58.3957C30.2492 58.2189 30.0935 58.1994 29.8493 58.3867C29.1528 58.9229 28.4323 59.4277 27.6429 59.9999C27.7328 59.7108 27.7927 59.4996 27.8646 59.2899C28.0773 58.6398 28.2855 57.9867 28.5072 57.3426C28.5512 57.2568 28.5594 57.157 28.5299 57.0652C28.5004 56.9733 28.4357 56.8969 28.3499 56.8528C27.6983 56.4034 27.0602 55.9226 26.4176 55.4538C26.3352 55.3909 26.2573 55.322 26.1016 55.1976Z" fill="#FFCC05"/>
<path d="M7.58073 13.1815C7.84885 14.0053 8.12746 14.8292 8.37611 15.656C8.46299 15.9436 8.6023 16.032 8.89738 16.026C9.77572 16.0018 10.6547 16.0242 11.5307 16.0934L10.8431 16.5967C10.3578 16.9487 9.88 17.3127 9.3842 17.6452C9.33611 17.6689 9.29324 17.7019 9.25812 17.7424C9.22301 17.7829 9.19636 17.83 9.17975 17.881C9.16313 17.932 9.1569 17.9857 9.1614 18.0391C9.1659 18.0925 9.18104 18.1445 9.20595 18.192C9.49205 19.0218 9.75118 19.8606 9.96837 20.7474C9.81858 20.638 9.66879 20.5302 9.519 20.4208C8.9543 20.0119 8.38211 19.6105 7.83088 19.1851C7.61519 19.0203 7.46839 19.0353 7.25869 19.1941C6.65953 19.6539 6.0334 20.0928 5.41927 20.5347C5.3249 20.6021 5.22305 20.6635 5.03731 20.7848C5.30393 19.9595 5.54808 19.233 5.77277 18.502C6.00794 17.7381 6.10381 17.9538 5.43125 17.4535C4.80813 16.9891 4.17602 16.5383 3.45703 16.0155C4.31532 16.0155 5.05827 16.0245 5.79973 16.0155C6.75838 16.0005 6.50973 16.1818 6.83028 15.2546C7.06845 14.5611 7.27965 13.863 7.51332 13.1665L7.58073 13.1815Z" fill="#FFCC05"/>
<path d="M13.1326 6.47093C14.0134 6.47093 14.8926 6.45895 15.7719 6.47093C16.0565 6.47093 16.1778 6.37806 16.2587 6.10994C16.5134 5.27111 16.7965 4.44128 17.1005 3.50958C17.3881 4.38735 17.6712 5.15727 17.8884 5.95865C18.0008 6.36757 18.188 6.4934 18.5999 6.47543C19.4292 6.44244 20.2598 6.46295 21.0864 6.53684L20.6371 6.86937C20.0634 7.28729 19.4957 7.71269 18.913 8.11712C18.8708 8.13948 18.8335 8.16994 18.8031 8.20676C18.7728 8.24357 18.75 8.28603 18.7361 8.33168C18.7221 8.37732 18.7174 8.42527 18.722 8.47276C18.7267 8.52026 18.7407 8.56636 18.7632 8.60844C19.0119 9.33791 19.2425 10.0734 19.4777 10.8059C19.5151 10.9182 19.5466 11.032 19.6125 11.2552C19.2455 10.9856 18.9624 10.7804 18.6808 10.5752C18.2464 10.2591 17.8031 9.95206 17.3777 9.62252C17.1769 9.47273 17.0346 9.47273 16.8339 9.62252C16.1314 10.1513 15.4139 10.6591 14.6305 11.2268C14.6665 11.0575 14.6784 10.9706 14.7054 10.8882C14.9421 10.1558 15.1653 9.4173 15.4274 8.69382C15.5412 8.37926 15.4618 8.21299 15.1982 8.03175C14.4942 7.54643 13.8097 7.03265 13.1191 6.53385L13.1326 6.47093Z" fill="#FFCC05"/>
<path d="M39.2786 6.47084C40.1459 6.47084 41.0146 6.45886 41.8819 6.47084C42.162 6.47084 42.2938 6.38996 42.3762 6.11734C42.6309 5.27852 42.9125 4.44718 43.2181 3.508C43.4757 4.2929 43.7019 4.98193 43.9266 5.66947C44.1857 6.46485 44.1842 6.46485 45.0065 6.46485H47.3058C46.5389 7.02357 45.8753 7.53585 45.1788 8.0017C44.8523 8.2189 44.7923 8.41662 44.9271 8.78211C45.2142 9.56505 45.4509 10.3656 45.6357 11.1787C45.1039 10.7953 44.5707 10.4133 44.0404 10.0254C43.2225 9.42621 43.224 9.42621 42.4047 10.0254C41.8705 10.4274 41.316 10.8019 40.7435 11.1473C40.8199 10.9001 40.8933 10.6515 40.9757 10.3983C41.1659 9.79918 41.3472 9.20751 41.5569 8.62033C41.6483 8.36569 41.5928 8.22639 41.3741 8.0736C40.6552 7.5718 39.9526 7.04754 39.2441 6.53226L39.2786 6.47084Z" fill="#FFCC05"/>
<path d="M53.8003 33.7521C54.0654 32.9403 54.3141 32.1239 54.6002 31.3196C54.711 31.008 54.6421 30.8402 54.374 30.6575C53.6663 30.1743 52.9872 29.6506 52.3398 29.0892H53.0888C53.7134 29.0892 54.338 29.0772 54.9612 29.0892C55.0144 29.0979 55.0688 29.0961 55.1213 29.0837C55.1739 29.0713 55.2234 29.0487 55.2671 29.0171C55.3108 28.9855 55.3479 28.9455 55.3761 28.8995C55.4043 28.8536 55.4231 28.8025 55.4315 28.7492C55.6906 27.9088 55.9722 27.076 56.3168 26.2237C56.3632 26.363 56.4081 26.5023 56.4546 26.6416C56.6822 27.3381 56.9219 28.0332 57.1316 28.7387C57.214 29.0113 57.3533 29.0982 57.6304 29.0922C58.4947 29.0772 59.359 29.0922 60.2517 29.1596L59.4129 29.7767C58.998 30.0763 58.5921 30.3983 58.1622 30.6755C57.915 30.8372 57.8626 30.9915 57.9584 31.2746C58.246 32.0925 58.4992 32.9223 58.7973 33.8465C58.622 33.7282 58.5172 33.6623 58.4153 33.5889C57.7922 33.1395 57.1646 32.6901 56.5474 32.2243C56.479 32.1562 56.3863 32.118 56.2898 32.118C56.1933 32.118 56.1006 32.1562 56.0322 32.2243C55.3192 32.7575 54.5912 33.2728 53.8692 33.7956L53.8003 33.7521Z" fill="#FFCC05"/>
<path d="M7.99726 29.1792C7.34717 29.6525 6.70907 30.1453 6.03951 30.5917C5.69949 30.8179 5.60062 31.0201 5.7549 31.4245C6.0455 32.187 6.26869 32.9749 6.5443 33.8212C6.4035 33.7388 6.32411 33.7013 6.25371 33.6504C5.60811 33.1846 4.95653 32.7277 4.32592 32.2454C4.10573 32.0761 3.95444 32.0956 3.74923 32.2559C3.16356 32.6978 2.56439 33.1232 1.97122 33.5545C1.85439 33.6399 1.73306 33.7193 1.52186 33.8541C1.78249 33.0483 2.02215 32.3383 2.24234 31.6223C2.51346 30.7415 2.59285 31.0066 1.86038 30.4614C1.36008 30.0884 0.852304 29.7274 0.349012 29.3589C0.254644 29.29 0.166266 29.2091 0 29.0788C0.939179 29.0788 1.77949 29.0608 2.61832 29.0863C2.95983 29.0968 3.11861 28.9889 3.21747 28.6594C3.45863 27.8431 3.73575 27.0372 4.03533 26.113C4.266 26.8155 4.46372 27.4117 4.65845 28.0078C5.01794 29.0893 5.01794 29.0893 6.13687 29.0893H7.9673L7.99726 29.1792Z" fill="#FFCC05"/>
<path d="M19.621 56.5009C18.8286 55.9257 18.1111 55.4209 17.4131 54.8921C17.1899 54.7229 17.0326 54.7109 16.8139 54.8831C16.1114 55.4149 15.3939 55.9227 14.6315 56.4754C14.6449 56.3867 14.6629 56.2987 14.6854 56.2118C14.9385 55.4194 15.1872 54.6255 15.4568 53.8391C15.4997 53.7522 15.5066 53.6519 15.476 53.5599C15.4454 53.468 15.3799 53.3918 15.2935 53.3478C14.6719 52.9104 14.0623 52.461 13.4481 52.0132C13.3366 51.9377 13.2467 51.8345 13.1875 51.7136H14.5236C14.952 51.7136 15.3804 51.7031 15.8088 51.7136C15.912 51.7291 16.0172 51.7031 16.1014 51.6414C16.1856 51.5797 16.2419 51.4872 16.2582 51.384C16.5173 50.5437 16.7974 49.7094 17.0955 48.7927C17.1614 48.9425 17.2049 49.0144 17.2303 49.0922C17.4595 49.7903 17.7186 50.4793 17.8999 51.1893C18.0122 51.6282 18.2294 51.7345 18.6488 51.7181C19.4547 51.6866 20.2621 51.7091 21.1728 51.7091C20.9945 51.8439 20.8867 51.9263 20.7773 52.0087C20.1782 52.4416 19.5985 52.8849 18.9918 53.2999C18.7492 53.4661 18.6923 53.6174 18.7866 53.899C19.0637 54.7333 19.3199 55.5707 19.621 56.5009Z" fill="#FFCC05"/>
<path d="M30.1618 0C30.4613 0.933193 30.7474 1.76603 31.0021 2.60785C31.0106 2.66747 31.031 2.72478 31.0621 2.77636C31.0933 2.82793 31.1344 2.87273 31.1832 2.90808C31.2319 2.94343 31.2873 2.96862 31.346 2.98215C31.4047 2.99568 31.4655 2.99726 31.5248 2.98682C32.3921 2.96884 33.2609 2.98682 34.2211 2.98682C33.896 3.22648 33.6294 3.4257 33.3613 3.62193C32.9119 3.95446 32.4625 4.29598 31.9907 4.60905C31.7765 4.75884 31.742 4.89065 31.8214 5.12582C32.1105 5.96914 32.3786 6.81845 32.6887 7.76962C32.0776 7.32025 31.5488 6.94577 31.0216 6.56081C30.1678 5.93619 30.1693 5.93469 29.3244 6.55332C28.7927 6.94128 28.2594 7.32624 27.6438 7.77261C27.9434 6.84242 28.204 6.00359 28.4931 5.17675C28.592 4.89664 28.5455 4.74385 28.2984 4.57759C27.5779 4.08028 26.8784 3.55303 26.1055 2.98981C27.0701 2.98981 27.9479 2.97933 28.8256 2.98981C28.9393 3.00665 29.0551 2.97806 29.1479 2.91023C29.2407 2.8424 29.303 2.74077 29.3214 2.62732C29.5746 1.78101 29.8562 0.946674 30.1618 0Z" fill="#FFCC05"/>
<path d="M45.6219 56.4155C44.9718 55.9421 44.3053 55.4898 43.6747 54.9895C43.3391 54.7213 43.107 54.7153 42.7654 54.9895C42.1303 55.5017 41.4488 55.9586 40.6983 56.5024C40.965 55.68 41.2106 54.9565 41.4338 54.2285C41.6884 53.4002 41.7828 53.6399 41.0833 53.1201C40.562 52.7336 40.0348 52.3562 39.5105 51.9727C39.4371 51.9203 39.3727 51.8544 39.2109 51.7136H39.9269C40.5755 51.7136 41.2256 51.7031 41.8742 51.7136C41.9304 51.7234 41.988 51.7219 42.0437 51.7091C42.0993 51.6963 42.1519 51.6726 42.1982 51.6392C42.2445 51.6059 42.2837 51.5636 42.3135 51.5149C42.3432 51.4662 42.363 51.412 42.3715 51.3556C42.5872 50.6291 42.8343 49.9116 43.0695 49.1911C43.1055 49.0788 43.1504 48.9694 43.2268 48.7657C43.4829 49.5506 43.6986 50.2471 43.9353 50.9347C44.2454 51.8334 44.0042 51.6971 45.0048 51.7076C45.7133 51.7151 46.4218 51.7076 47.2516 51.7076C47.0704 51.8574 46.9775 51.9367 46.8772 52.0071C46.263 52.4565 45.6519 52.9059 45.0317 53.3418C44.9458 53.3865 44.8809 53.4634 44.8512 53.5556C44.8215 53.6478 44.8293 53.7481 44.873 53.8346C45.1561 54.6659 45.4182 55.5047 45.6878 56.3406L45.6219 56.4155Z" fill="#FFCC05"/>
<path d="M7.58243 39.3094C7.84157 40.1078 8.12168 40.9002 8.35235 41.7061C8.45571 42.0701 8.63396 42.1824 9.00094 42.1674C9.69746 42.139 10.397 42.1585 11.098 42.1674C11.2133 42.1674 11.3302 42.1809 11.5623 42.1944C11.2702 42.4101 11.071 42.5614 10.8688 42.7082C10.403 43.0467 9.9506 43.4047 9.46678 43.7133C9.15522 43.911 9.12676 44.1147 9.2421 44.4398C9.5237 45.2336 9.77086 46.0395 10.0659 46.9458C9.86972 46.8065 9.74839 46.7211 9.62856 46.6327C9.0294 46.1953 8.41377 45.7654 7.8191 45.313C7.78365 45.2766 7.74126 45.2477 7.69444 45.2279C7.64761 45.2082 7.59731 45.198 7.54648 45.198C7.49566 45.198 7.44536 45.2082 7.39853 45.2279C7.35171 45.2477 7.30932 45.2766 7.27387 45.313C6.65973 45.7789 6.02912 46.2253 5.4045 46.6761C5.31912 46.739 5.22624 46.7945 5.05249 46.9083C5.1124 46.7001 5.14387 46.5773 5.18131 46.4589C5.40899 45.7609 5.63068 45.0599 5.87034 44.3619C5.96621 44.0878 5.93175 43.923 5.67861 43.7522C5.07046 43.3403 4.48029 42.8954 3.89162 42.4625C3.77926 42.3864 3.68763 42.2834 3.625 42.163H4.44584C5.03302 42.163 5.62019 42.151 6.20737 42.163C6.49047 42.1704 6.61779 42.0611 6.70017 41.7945C6.95182 40.9646 7.23193 40.1468 7.50005 39.3184L7.58243 39.3094Z" fill="#FFCC05"/>
<path d="M55.173 46.8484C54.4825 46.3466 53.783 45.8553 53.1044 45.337C52.8693 45.1588 52.709 45.1483 52.4678 45.337C51.7713 45.8703 51.0508 46.3736 50.2599 46.9473C50.5595 46.0216 50.8156 45.1842 51.1047 44.3589C51.2006 44.0803 51.1602 43.9215 50.913 43.7508C50.221 43.2714 49.5469 42.7651 48.7695 42.2004C48.9837 42.1825 49.0931 42.166 49.2009 42.1645C49.9499 42.1645 50.6988 42.1525 51.4478 42.1645C51.7309 42.1645 51.8597 42.0656 51.9406 41.799C52.1937 40.9691 52.4723 40.1513 52.7674 39.2391C52.8348 39.3889 52.8812 39.4802 52.9172 39.5731C53.1584 40.3041 53.413 41.0336 53.6287 41.772C53.7186 42.0791 53.8743 42.1705 54.1769 42.1645C55.0187 42.1495 55.8621 42.1645 56.8012 42.1645C56.6514 42.2933 56.5825 42.3667 56.5017 42.4266C55.9025 42.8595 55.3228 43.3044 54.7147 43.7148C54.4361 43.902 54.3612 44.0773 54.4795 44.4053C54.7656 45.1962 55.0082 46.0006 55.2674 46.802L55.173 46.8484Z" fill="#FFCC05"/>
<path d="M28.3153 34.0877V36.3211H19.0059V24.296H28.0861V26.5278H21.765V29.1387H27.3476V31.3061H21.765V34.0877H28.3153Z" fill="white"/>
<path d="M31.8608 35.1018C30.9031 34.1522 30.4248 32.7951 30.4258 31.0305V24.296H33.2089V30.9257C33.2089 33.0787 34.1021 34.1546 35.8886 34.1537C36.7584 34.1537 37.4224 33.8935 37.8808 33.3732C38.3392 32.853 38.5683 32.0371 38.5683 30.9257V24.296H41.3155V31.0365C41.3155 32.801 40.8376 34.1581 39.882 35.1078C38.9263 36.0575 37.5902 36.5308 35.8736 36.5278C34.155 36.5278 32.8174 36.0525 31.8608 35.1018Z" fill="white"/>
<path d="M93.6652 40.9821L93.625 38.6863H94.0382L94.0038 40.9821H93.6652Z" fill="white"/>
<path d="M77.5358 28.2811C77.5358 28.6076 77.5141 28.9015 77.4705 29.1628H70.8575C70.9119 29.8159 71.1405 30.3276 71.5433 30.6977C71.9461 31.0678 72.4413 31.2529 73.0292 31.2529C73.8783 31.2529 74.4824 30.8882 74.8416 30.1588H77.3072C77.046 31.0297 76.5452 31.7481 75.805 32.3142C75.0648 32.8694 74.1558 33.147 73.0782 33.147C72.2073 33.147 71.4235 32.9565 70.7269 32.5755C70.0411 32.1836 69.5022 31.6338 69.1103 30.9263C68.7293 30.2187 68.5388 29.4023 68.5388 28.477C68.5388 27.5408 68.7293 26.719 69.1103 26.0114C69.4913 25.3038 70.0247 24.7596 70.7105 24.3786C71.3963 23.9976 72.1855 23.8071 73.0782 23.8071C73.9381 23.8071 74.7056 23.9921 75.3805 24.3622C76.0663 24.7323 76.5942 25.2603 76.9643 25.9461C77.3453 26.621 77.5358 27.3993 77.5358 28.2811ZM75.1682 27.6279C75.1573 27.0401 74.9451 26.572 74.5314 26.2237C74.1177 25.8645 73.6116 25.6848 73.0128 25.6848C72.4468 25.6848 71.9678 25.859 71.5759 26.2073C71.1949 26.5448 70.9609 27.0183 70.8738 27.6279H75.1682ZM87.7442 23.954V33H85.4419V31.857C85.148 32.2489 84.7615 32.5591 84.2826 32.7877C83.8145 33.0054 83.3029 33.1143 82.7477 33.1143C82.0401 33.1143 81.4142 32.9673 80.8699 32.6734C80.3256 32.3686 79.8956 31.9278 79.58 31.3508C79.2752 30.763 79.1228 30.0663 79.1228 29.2608V23.954H81.4088V28.9342C81.4088 29.6527 81.5884 30.2078 81.9476 30.5997C82.3068 30.9807 82.7967 31.1712 83.4172 31.1712C84.0485 31.1712 84.5438 30.9807 84.903 30.5997C85.2623 30.2078 85.4419 29.6527 85.4419 28.9342V23.954H87.7442ZM92.2857 25.3583C92.5796 24.8793 92.9606 24.5037 93.4287 24.2316C93.9077 23.9595 94.4519 23.8234 95.0615 23.8234V26.2237H94.4574C93.7389 26.2237 93.1946 26.3924 92.8245 26.7299C92.4653 27.0673 92.2857 27.6551 92.2857 28.4933V33H89.9997V23.954H92.2857V25.3583ZM100.618 33.147C99.7472 33.147 98.9634 32.9565 98.2668 32.5755C97.5701 32.1836 97.0204 31.6338 96.6176 30.9263C96.2257 30.2187 96.0298 29.4023 96.0298 28.477C96.0298 27.5517 96.2311 26.7353 96.6339 26.0277C97.0476 25.3202 97.6082 24.7759 98.3158 24.3949C99.0233 24.003 99.8125 23.8071 100.683 23.8071C101.554 23.8071 102.343 24.003 103.051 24.3949C103.759 24.7759 104.314 25.3202 104.717 26.0277C105.13 26.7353 105.337 27.5517 105.337 28.477C105.337 29.4023 105.125 30.2187 104.7 30.9263C104.287 31.6338 103.72 32.1836 103.002 32.5755C102.294 32.9565 101.5 33.147 100.618 33.147ZM100.618 31.1549C101.032 31.1549 101.418 31.0569 101.777 30.861C102.148 30.6541 102.441 30.3493 102.659 29.9466C102.877 29.5438 102.986 29.0539 102.986 28.477C102.986 27.617 102.757 26.9585 102.3 26.5013C101.854 26.0332 101.304 25.7991 100.651 25.7991C99.9976 25.7991 99.4479 26.0332 99.0015 26.5013C98.5661 26.9585 98.3484 27.617 98.3484 28.477C98.3484 29.337 98.5607 30.001 98.9852 30.4691C99.4206 30.9263 99.9649 31.1549 100.618 31.1549ZM109.3 25.2603C109.594 24.8466 109.997 24.5037 110.508 24.2316C111.031 23.9486 111.624 23.8071 112.288 23.8071C113.061 23.8071 113.758 23.9976 114.378 24.3786C115.009 24.7596 115.505 25.3038 115.864 26.0114C116.234 26.7081 116.419 27.5191 116.419 28.4444C116.419 29.3696 116.234 30.1915 115.864 30.91C115.505 31.6175 115.009 32.1672 114.378 32.5591C113.758 32.951 113.061 33.147 112.288 33.147C111.624 33.147 111.036 33.0109 110.524 32.7387C110.024 32.4666 109.616 32.1237 109.3 31.71V37.3107H107.014V23.954H109.3V25.2603ZM114.084 28.4444C114.084 27.9001 113.97 27.432 113.741 27.0401C113.523 26.6373 113.23 26.3325 112.859 26.1257C112.5 25.9189 112.108 25.8155 111.684 25.8155C111.27 25.8155 110.878 25.9243 110.508 26.142C110.149 26.3489 109.855 26.6537 109.626 27.0564C109.409 27.4592 109.3 27.9327 109.3 28.477C109.3 29.0213 109.409 29.4948 109.626 29.8976C109.855 30.3004 110.149 30.6106 110.508 30.8283C110.878 31.0351 111.27 31.1386 111.684 31.1386C112.108 31.1386 112.5 31.0297 112.859 30.812C113.23 30.5943 113.523 30.284 113.741 29.8813C113.97 29.4785 114.084 28.9995 114.084 28.4444ZM126.489 28.2811C126.489 28.6076 126.468 28.9015 126.424 29.1628H119.811C119.865 29.8159 120.094 30.3276 120.497 30.6977C120.9 31.0678 121.395 31.2529 121.983 31.2529C122.832 31.2529 123.436 30.8882 123.795 30.1588H126.261C126 31.0297 125.499 31.7481 124.759 32.3142C124.018 32.8694 123.109 33.147 122.032 33.147C121.161 33.147 120.377 32.9565 119.68 32.5755C118.995 32.1836 118.456 31.6338 118.064 30.9263C117.683 30.2187 117.492 29.4023 117.492 28.477C117.492 27.5408 117.683 26.719 118.064 26.0114C118.445 25.3038 118.978 24.7596 119.664 24.3786C120.35 23.9976 121.139 23.8071 122.032 23.8071C122.892 23.8071 123.659 23.9921 124.334 24.3622C125.02 24.7323 125.548 25.2603 125.918 25.9461C126.299 26.621 126.489 27.3993 126.489 28.2811ZM124.122 27.6279C124.111 27.0401 123.899 26.572 123.485 26.2237C123.071 25.8645 122.565 25.6848 121.966 25.6848C121.4 25.6848 120.921 25.859 120.53 26.2073C120.149 26.5448 119.914 27.0183 119.827 27.6279H124.122ZM127.57 28.4444C127.57 27.53 127.75 26.719 128.109 26.0114C128.479 25.3038 128.974 24.7596 129.595 24.3786C130.226 23.9976 130.928 23.8071 131.701 23.8071C132.376 23.8071 132.964 23.9431 133.465 24.2153C133.976 24.4874 134.385 24.8303 134.689 25.244V23.954H136.992V33H134.689V31.6774C134.395 32.1019 133.987 32.4557 133.465 32.7387C132.953 33.0109 132.36 33.147 131.685 33.147C130.923 33.147 130.226 32.951 129.595 32.5591C128.974 32.1672 128.479 31.6175 128.109 30.91C127.75 30.1915 127.57 29.3696 127.57 28.4444ZM134.689 28.477C134.689 27.9218 134.581 27.4483 134.363 27.0564C134.145 26.6537 133.851 26.3489 133.481 26.142C133.111 25.9243 132.714 25.8155 132.289 25.8155C131.865 25.8155 131.473 25.9189 131.113 26.1257C130.754 26.3325 130.46 26.6373 130.232 27.0401C130.014 27.432 129.905 27.9001 129.905 28.4444C129.905 28.9886 130.014 29.4676 130.232 29.8813C130.46 30.284 130.754 30.5943 131.113 30.812C131.484 31.0297 131.875 31.1386 132.289 31.1386C132.714 31.1386 133.111 31.0351 133.481 30.8283C133.851 30.6106 134.145 30.3058 134.363 29.9139C134.581 29.5111 134.689 29.0322 134.689 28.477ZM144.237 23.8234C145.315 23.8234 146.186 24.1663 146.85 24.8521C147.514 25.527 147.846 26.474 147.846 27.6932V33H145.56V28.0035C145.56 27.285 145.38 26.7353 145.021 26.3543C144.662 25.9624 144.172 25.7665 143.551 25.7665C142.92 25.7665 142.419 25.9624 142.049 26.3543C141.69 26.7353 141.51 27.285 141.51 28.0035V33H139.224V23.954H141.51V25.0807C141.815 24.6888 142.202 24.384 142.67 24.1663C143.149 23.9377 143.671 23.8234 144.237 23.8234ZM158.559 23.954V33H156.257V31.857C155.963 32.2489 155.577 32.5591 155.098 32.7877C154.63 33.0054 154.118 33.1143 153.563 33.1143C152.855 33.1143 152.229 32.9673 151.685 32.6734C151.141 32.3686 150.711 31.9278 150.395 31.3508C150.09 30.763 149.938 30.0663 149.938 29.2608V23.954H152.224V28.9342C152.224 29.6527 152.404 30.2078 152.763 30.5997C153.122 30.9807 153.612 31.1712 154.232 31.1712C154.864 31.1712 155.359 30.9807 155.718 30.5997C156.078 30.2078 156.257 29.6527 156.257 28.9342V23.954H158.559ZM165.828 23.8234C166.905 23.8234 167.776 24.1663 168.44 24.8521C169.104 25.527 169.436 26.474 169.436 27.6932V33H167.15V28.0035C167.15 27.285 166.971 26.7353 166.612 26.3543C166.252 25.9624 165.762 25.7665 165.142 25.7665C164.511 25.7665 164.01 25.9624 163.64 26.3543C163.281 26.7353 163.101 27.285 163.101 28.0035V33H160.815V23.954H163.101V25.0807C163.406 24.6888 163.792 24.384 164.26 24.1663C164.739 23.9377 165.262 23.8234 165.828 23.8234ZM172.77 22.8763C172.367 22.8763 172.029 22.7512 171.757 22.5008C171.496 22.2395 171.365 21.9184 171.365 21.5374C171.365 21.1564 171.496 20.8407 171.757 20.5903C172.029 20.3291 172.367 20.1985 172.77 20.1985C173.172 20.1985 173.504 20.3291 173.766 20.5903C174.038 20.8407 174.174 21.1564 174.174 21.5374C174.174 21.9184 174.038 22.2395 173.766 22.5008C173.504 22.7512 173.172 22.8763 172.77 22.8763ZM173.896 23.954V33H171.61V23.954H173.896ZM179.927 30.8936L182.213 23.954H184.646L181.298 33H178.522L175.191 23.954H177.641L179.927 30.8936ZM194.339 28.2811C194.339 28.6076 194.317 28.9015 194.273 29.1628H187.66C187.715 29.8159 187.943 30.3276 188.346 30.6977C188.749 31.0678 189.244 31.2529 189.832 31.2529C190.681 31.2529 191.285 30.8882 191.645 30.1588H194.11C193.849 31.0297 193.348 31.7481 192.608 32.3142C191.868 32.8694 190.959 33.147 189.881 33.147C189.01 33.147 188.226 32.9565 187.53 32.5755C186.844 32.1836 186.305 31.6338 185.913 30.9263C185.532 30.2187 185.342 29.4023 185.342 28.477C185.342 27.5408 185.532 26.719 185.913 26.0114C186.294 25.3038 186.828 24.7596 187.513 24.3786C188.199 23.9976 188.988 23.8071 189.881 23.8071C190.741 23.8071 191.508 23.9921 192.183 24.3622C192.869 24.7323 193.397 25.2603 193.767 25.9461C194.148 26.621 194.339 27.3993 194.339 28.2811ZM191.971 27.6279C191.96 27.0401 191.748 26.572 191.334 26.2237C190.921 25.8645 190.414 25.6848 189.816 25.6848C189.25 25.6848 188.771 25.859 188.379 26.2073C187.998 26.5448 187.764 27.0183 187.677 27.6279H191.971ZM198.293 25.3583C198.587 24.8793 198.968 24.5037 199.436 24.2316C199.915 23.9595 200.46 23.8234 201.069 23.8234V26.2237H200.465C199.747 26.2237 199.202 26.3924 198.832 26.7299C198.473 27.0673 198.293 27.6551 198.293 28.4933V33H196.007V23.954H198.293V25.3583ZM206.07 33.147C205.33 33.147 204.666 33.0163 204.078 32.7551C203.491 32.4829 203.023 32.1183 202.674 31.6611C202.337 31.2039 202.152 30.6977 202.119 30.1425H204.421C204.465 30.4909 204.634 30.7793 204.928 31.0079C205.232 31.2365 205.608 31.3508 206.054 31.3508C206.49 31.3508 206.827 31.2637 207.067 31.0896C207.317 30.9154 207.442 30.6922 207.442 30.4201C207.442 30.1262 207.29 29.9085 206.985 29.767C206.691 29.6146 206.217 29.4513 205.564 29.2771C204.889 29.1138 204.334 28.9451 203.899 28.7709C203.474 28.5968 203.104 28.3301 202.788 27.9708C202.484 27.6116 202.331 27.1272 202.331 26.5176C202.331 26.0168 202.473 25.5597 202.756 25.146C203.05 24.7323 203.463 24.4058 203.997 24.1663C204.541 23.9268 205.178 23.8071 205.907 23.8071C206.985 23.8071 207.845 24.0792 208.487 24.6235C209.129 25.1569 209.483 25.8808 209.548 26.7952H207.36C207.328 26.4359 207.175 26.1529 206.903 25.9461C206.642 25.7284 206.288 25.6195 205.842 25.6195C205.428 25.6195 205.107 25.6957 204.879 25.8481C204.661 26.0005 204.552 26.2128 204.552 26.4849C204.552 26.7897 204.704 27.0238 205.009 27.1871C205.314 27.3395 205.787 27.4973 206.43 27.6606C207.083 27.8239 207.622 27.9926 208.046 28.1668C208.471 28.3409 208.835 28.6131 209.14 28.9832C209.456 29.3424 209.619 29.8214 209.63 30.4201C209.63 30.9426 209.483 31.4107 209.189 31.8243C208.906 32.238 208.493 32.5646 207.948 32.8041C207.415 33.0327 206.789 33.147 206.07 33.147ZM212.666 22.8763C212.263 22.8763 211.926 22.7512 211.654 22.5008C211.392 22.2395 211.262 21.9184 211.262 21.5374C211.262 21.1564 211.392 20.8407 211.654 20.5903C211.926 20.3291 212.263 20.1985 212.666 20.1985C213.069 20.1985 213.401 20.3291 213.662 20.5903C213.934 20.8407 214.07 21.1564 214.07 21.5374C214.07 21.9184 213.934 22.2395 213.662 22.5008C213.401 22.7512 213.069 22.8763 212.666 22.8763ZM213.793 23.954V33H211.507V23.954H213.793ZM218.713 25.8318V30.2078C218.713 30.5126 218.783 30.7358 218.925 30.8773C219.077 31.0079 219.328 31.0732 219.676 31.0732H220.737V33H219.301C217.374 33 216.41 32.0638 216.41 30.1915V25.8318H215.333V23.954H216.41V21.717H218.713V23.954H220.737V25.8318H218.713ZM223.541 22.8763C223.138 22.8763 222.801 22.7512 222.529 22.5008C222.267 22.2395 222.137 21.9184 222.137 21.5374C222.137 21.1564 222.267 20.8407 222.529 20.5903C222.801 20.3291 223.138 20.1985 223.541 20.1985C223.944 20.1985 224.276 20.3291 224.537 20.5903C224.809 20.8407 224.945 21.1564 224.945 21.5374C224.945 21.9184 224.809 22.2395 224.537 22.5008C224.276 22.7512 223.944 22.8763 223.541 22.8763ZM224.668 23.954V33H222.382V23.954H224.668ZM235.335 28.2811C235.335 28.6076 235.314 28.9015 235.27 29.1628H228.657C228.711 29.8159 228.94 30.3276 229.343 30.6977C229.746 31.0678 230.241 31.2529 230.829 31.2529C231.678 31.2529 232.282 30.8882 232.641 30.1588H235.107C234.846 31.0297 234.345 31.7481 233.605 32.3142C232.864 32.8694 231.955 33.147 230.878 33.147C230.007 33.147 229.223 32.9565 228.526 32.5755C227.841 32.1836 227.302 31.6338 226.91 30.9263C226.529 30.2187 226.338 29.4023 226.338 28.477C226.338 27.5408 226.529 26.719 226.91 26.0114C227.291 25.3038 227.824 24.7596 228.51 24.3786C229.196 23.9976 229.985 23.8071 230.878 23.8071C231.738 23.8071 232.505 23.9921 233.18 24.3622C233.866 24.7323 234.394 25.2603 234.764 25.9461C235.145 26.621 235.335 27.3993 235.335 28.2811ZM232.968 27.6279C232.957 27.0401 232.745 26.572 232.331 26.2237C231.917 25.8645 231.411 25.6848 230.812 25.6848C230.246 25.6848 229.767 25.859 229.375 26.2073C228.994 26.5448 228.76 27.0183 228.673 27.6279H232.968ZM240.466 33.147C239.725 33.147 239.061 33.0163 238.473 32.7551C237.886 32.4829 237.418 32.1183 237.069 31.6611C236.732 31.2039 236.547 30.6977 236.514 30.1425H238.816C238.86 30.4909 239.029 30.7793 239.323 31.0079C239.627 31.2365 240.003 31.3508 240.449 31.3508C240.885 31.3508 241.222 31.2637 241.462 31.0896C241.712 30.9154 241.837 30.6922 241.837 30.4201C241.837 30.1262 241.685 29.9085 241.38 29.767C241.086 29.6146 240.613 29.4513 239.959 29.2771C239.284 29.1138 238.729 28.9451 238.294 28.7709C237.869 28.5968 237.499 28.3301 237.184 27.9708C236.879 27.6116 236.726 27.1272 236.726 26.5176C236.726 26.0168 236.868 25.5597 237.151 25.146C237.445 24.7323 237.858 24.4058 238.392 24.1663C238.936 23.9268 239.573 23.8071 240.302 23.8071C241.38 23.8071 242.24 24.0792 242.882 24.6235C243.524 25.1569 243.878 25.8808 243.944 26.7952H241.756C241.723 26.4359 241.57 26.1529 241.298 25.9461C241.037 25.7284 240.683 25.6195 240.237 25.6195C239.823 25.6195 239.502 25.6957 239.274 25.8481C239.056 26.0005 238.947 26.2128 238.947 26.4849C238.947 26.7897 239.099 27.0238 239.404 27.1871C239.709 27.3395 240.183 27.4973 240.825 27.6606C241.478 27.8239 242.017 27.9926 242.441 28.1668C242.866 28.3409 243.231 28.6131 243.535 28.9832C243.851 29.3424 244.014 29.8214 244.025 30.4201C244.025 30.9426 243.878 31.4107 243.584 31.8243C243.301 32.238 242.888 32.5646 242.343 32.8041C241.81 33.0327 241.184 33.147 240.466 33.147ZM246.914 33.1143C246.5 33.1143 246.157 32.9891 245.885 32.7387C245.624 32.4775 245.493 32.1564 245.493 31.7754C245.493 31.3944 245.624 31.0787 245.885 30.8283C246.157 30.5671 246.5 30.4364 246.914 30.4364C247.317 30.4364 247.649 30.5671 247.91 30.8283C248.171 31.0787 248.302 31.3944 248.302 31.7754C248.302 32.1564 248.171 32.4775 247.91 32.7387C247.649 32.9891 247.317 33.1143 246.914 33.1143ZM251.303 22.8763C250.9 22.8763 250.562 22.7512 250.29 22.5008C250.029 22.2395 249.898 21.9184 249.898 21.5374C249.898 21.1564 250.029 20.8407 250.29 20.5903C250.562 20.3291 250.9 20.1985 251.303 20.1985C251.705 20.1985 252.037 20.3291 252.299 20.5903C252.571 20.8407 252.707 21.1564 252.707 21.5374C252.707 21.9184 252.571 22.2395 252.299 22.5008C252.037 22.7512 251.705 22.8763 251.303 22.8763ZM252.429 23.954V33H250.143V23.954H252.429ZM259.701 23.8234C260.778 23.8234 261.649 24.1663 262.313 24.8521C262.977 25.527 263.309 26.474 263.309 27.6932V33H261.023V28.0035C261.023 27.285 260.844 26.7353 260.484 26.3543C260.125 25.9624 259.635 25.7665 259.015 25.7665C258.383 25.7665 257.883 25.9624 257.513 26.3543C257.153 26.7353 256.974 27.285 256.974 28.0035V33H254.688V23.954H256.974V25.0807C257.279 24.6888 257.665 24.384 258.133 24.1663C258.612 23.9377 259.135 23.8234 259.701 23.8234Z" fill="white"/>
<path d="M69 44.9595V38.6462H69.4591V44.9595H69Z" fill="white"/>
<path d="M74.3446 40.2474C74.6903 40.2368 75.0334 40.3117 75.3432 40.4655C75.6312 40.6098 75.8647 40.8433 76.009 41.1313C76.1797 41.4728 76.2626 41.8516 76.25 42.2332V44.9767H75.8024V42.2677C75.8318 41.8288 75.6875 41.3959 75.4006 41.0624C75.2492 40.9166 75.0687 40.8043 74.8708 40.7331C74.673 40.6619 74.4624 40.6333 74.2527 40.6492C73.9212 40.6409 73.5931 40.718 73.3 40.873C73.036 41.0163 72.8218 41.2365 72.6859 41.5043C72.5467 41.8019 72.4817 42.1289 72.4965 42.4571V44.9594H72.0488V40.2474H72.4965V41.5503L72.4391 41.4068C72.5731 41.0453 72.8208 40.7372 73.145 40.5287C73.51 40.3228 73.9261 40.2252 74.3446 40.2474Z" fill="white"/>
<path d="M80.4514 44.9939C80.0355 44.999 79.6256 44.8941 79.2633 44.6897C78.9152 44.4929 78.6289 44.2026 78.4369 43.8518C78.2334 43.4692 78.127 43.0425 78.127 42.6092C78.127 42.1759 78.2334 41.7492 78.4369 41.3666C78.6306 41.017 78.9165 40.7272 79.2633 40.5287C79.6262 40.3263 80.036 40.2234 80.4514 40.2303C80.8435 40.223 81.2303 40.3222 81.5706 40.5172C81.905 40.7102 82.1792 40.9924 82.3626 41.3322C82.5626 41.7286 82.6612 42.1683 82.6496 42.6121C82.6614 43.0522 82.5628 43.4883 82.3626 43.8805C82.1835 44.2245 81.911 44.511 81.5763 44.707C81.2332 44.9001 80.8451 44.9991 80.4514 44.9939ZM80.4514 44.5864C80.791 44.5929 81.1261 44.5076 81.4213 44.3396C81.7049 44.1745 81.9373 43.9342 82.0929 43.6452C82.2553 43.324 82.3399 42.9691 82.3399 42.6092C82.3399 42.2493 82.2553 41.8944 82.0929 41.5733C81.9357 41.2855 81.7037 41.0456 81.4213 40.8788C81.1261 40.7108 80.791 40.6255 80.4514 40.632C80.1136 40.6257 79.7804 40.711 79.4872 40.8788C79.2018 41.0436 78.9675 41.2839 78.8099 41.5733C78.6475 41.8944 78.5629 42.2493 78.5629 42.6092C78.5629 42.9691 78.6475 43.324 78.8099 43.6452C78.9658 43.9358 79.2005 44.1766 79.4872 44.3396C79.7871 44.5115 80.1288 44.5969 80.4744 44.5864H80.4514ZM82.3511 44.9595V43.4213L82.4315 42.6006L82.3396 41.7856V38.2846H82.8275V44.9595H82.3511Z" fill="white"/>
<path d="M85.473 39.0995C85.4248 39.1001 85.3769 39.0908 85.3325 39.072C85.288 39.0532 85.2479 39.0255 85.2147 38.9905C85.1799 38.9584 85.1522 38.9193 85.1334 38.8758C85.1146 38.8323 85.1052 38.7853 85.1057 38.738C85.104 38.6896 85.1129 38.6414 85.1317 38.5968C85.1505 38.5522 85.1789 38.5122 85.2147 38.4797C85.2479 38.4447 85.288 38.4169 85.3325 38.3982C85.3769 38.3794 85.4248 38.37 85.473 38.3706C85.5226 38.3687 85.5721 38.3769 85.6184 38.3947C85.6648 38.4124 85.7071 38.4394 85.7427 38.4739C85.7767 38.5077 85.8034 38.548 85.8211 38.5924C85.8389 38.6368 85.8474 38.6844 85.8461 38.7322C85.8468 38.8285 85.8097 38.9213 85.7427 38.9905C85.7082 39.0269 85.6663 39.0555 85.6197 39.0744C85.5732 39.0932 85.5231 39.1018 85.473 39.0995ZM85.2492 44.9365V40.2474H85.6968V44.9422L85.2492 44.9365Z" fill="white"/>
<path d="M89.4043 44.9939C89.0939 45.0003 88.7854 44.9437 88.4975 44.8274C88.2641 44.7304 88.0644 44.5667 87.9236 44.3568C87.7852 44.1477 87.7132 43.9016 87.7169 43.6509C87.7155 43.4239 87.7728 43.2005 87.8834 43.0023C88.0201 42.7874 88.2209 42.6207 88.4573 42.526C88.7837 42.3887 89.1367 42.326 89.4904 42.3423H91.2122V42.6924H89.4904C89.1301 42.6545 88.7685 42.7505 88.4745 42.9621C88.38 43.0462 88.3048 43.1497 88.2543 43.2657C88.2037 43.3816 88.179 43.5072 88.1818 43.6336C88.1776 43.7723 88.206 43.91 88.2648 44.0357C88.3236 44.1613 88.4112 44.2713 88.5204 44.3568C88.803 44.5513 89.1422 44.6463 89.4847 44.6266C89.8387 44.637 90.1879 44.5432 90.489 44.3568C90.7565 44.1598 90.9569 43.8853 91.063 43.5705L91.1893 43.8804C91.0688 44.213 90.8431 44.4971 90.5464 44.6897C90.2042 44.9017 89.8067 45.0076 89.4043 44.9939ZM91.0974 44.9594V43.8862V43.7255V41.9692C91.1107 41.7872 91.0859 41.6044 91.0247 41.4324C90.9634 41.2605 90.867 41.1032 90.7416 40.9706C90.4565 40.7234 90.0849 40.5995 89.7085 40.6262C89.3985 40.6244 89.0908 40.6808 88.8017 40.7927C88.5408 40.8963 88.2985 41.0417 88.0843 41.2231L87.8604 40.896C88.1088 40.6792 88.3975 40.5135 88.7098 40.4081C89.0335 40.2996 89.3729 40.2453 89.7142 40.2474C90.1997 40.214 90.6792 40.3704 91.0515 40.6836C91.2174 40.8577 91.3449 41.0646 91.426 41.2909C91.5071 41.5173 91.5398 41.7581 91.5221 41.9979V44.9767L91.0974 44.9594Z" fill="white"/>
<path d="M97.3865 44.9939C97.016 44.9968 96.6476 44.9387 96.2961 44.8217C96.0067 44.735 95.7387 44.5883 95.5098 44.3912L95.7164 44.0297C95.9294 44.2057 96.1724 44.3418 96.4338 44.4314C96.7449 44.5432 97.0732 44.5996 97.4038 44.5979C97.7741 44.6293 98.1451 44.5451 98.4655 44.3568C98.5685 44.2846 98.6521 44.1882 98.7091 44.0761C98.7662 43.9641 98.7949 43.8397 98.7927 43.714C98.7995 43.5468 98.7396 43.3837 98.6262 43.2606C98.498 43.1437 98.345 43.0573 98.1786 43.0081C97.9797 42.9435 97.7764 42.8937 97.5702 42.8588L96.9044 42.7268C96.6916 42.685 96.4852 42.6155 96.2903 42.5202C96.1136 42.4356 95.9614 42.3072 95.8484 42.1472C95.7256 41.9603 95.6653 41.7392 95.6762 41.5158C95.674 41.284 95.7442 41.0573 95.8771 40.8673C96.0205 40.6611 96.2195 40.4999 96.451 40.4024C96.7669 40.2783 97.1047 40.2197 97.4439 40.2302C97.7426 40.2312 98.0398 40.2717 98.3278 40.3507C98.5868 40.4175 98.8318 40.5302 99.051 40.6836L98.8443 41.0452C98.6464 40.8942 98.4199 40.7848 98.1786 40.7238C97.9358 40.6554 97.6847 40.6206 97.4325 40.6205C97.0792 40.5945 96.727 40.683 96.4281 40.873C96.3292 40.9457 96.249 41.0409 96.1942 41.1506C96.1393 41.2604 96.1113 41.3816 96.1124 41.5043C96.1047 41.6769 96.1644 41.8456 96.2788 41.975C96.4009 42.1009 96.553 42.1938 96.7208 42.2447C96.9214 42.3112 97.1267 42.363 97.3349 42.3997C97.5587 42.4399 97.7768 42.48 98.0006 42.5317C98.2107 42.5743 98.4149 42.6417 98.609 42.7326C98.7882 42.8104 98.943 42.9353 99.0567 43.0942C99.1784 43.2692 99.2426 43.4778 99.2404 43.691C99.2467 43.9323 99.1719 44.1688 99.028 44.3625C98.8684 44.5717 98.6508 44.7294 98.4024 44.816C98.0779 44.9383 97.7333 44.9986 97.3865 44.9939Z" fill="white"/>
<path d="M104.062 44.9595V38.6462H104.447L108.935 44.3855H108.729V38.6462H109.188V44.9595H108.809L104.315 39.2201H104.522V44.9595H104.062Z" fill="white"/>
<path d="M113.583 44.9939C113.163 45.0011 112.749 44.8961 112.384 44.6897C112.026 44.4886 111.729 44.1953 111.523 43.8403C111.319 43.4608 111.213 43.0369 111.213 42.6063C111.213 42.1758 111.319 41.7519 111.523 41.3724C111.722 41.0234 112.012 40.7341 112.361 40.5344C112.725 40.3251 113.14 40.2199 113.56 40.2302C113.982 40.2218 114.398 40.3268 114.766 40.5344C115.126 40.7357 115.422 41.034 115.621 41.3953C115.824 41.7748 115.931 42.1987 115.931 42.6293C115.931 43.0599 115.824 43.4838 115.621 43.8633C115.425 44.2164 115.138 44.51 114.789 44.7127C114.418 44.9097 114.003 45.0067 113.583 44.9939ZM113.583 44.5864C113.923 44.5921 114.258 44.5069 114.553 44.3396C114.84 44.1766 115.075 43.9358 115.23 43.6452C115.389 43.3228 115.471 42.9684 115.471 42.6092C115.471 42.25 115.389 41.8956 115.23 41.5733C115.073 41.2839 114.839 41.0436 114.553 40.8788C114.255 40.717 113.922 40.6323 113.583 40.6323C113.244 40.6323 112.911 40.717 112.613 40.8788C112.331 41.0455 112.099 41.2855 111.942 41.5733C111.779 41.8944 111.695 42.2493 111.695 42.6092C111.695 42.9691 111.779 43.324 111.942 43.6452C112.097 43.9342 112.33 44.1745 112.613 44.3396C112.909 44.5076 113.244 44.5929 113.583 44.5864Z" fill="white"/>
<path d="M117.658 44.9938C117.608 44.9931 117.558 44.9824 117.512 44.9624C117.465 44.9424 117.423 44.9134 117.388 44.8771C117.353 44.8409 117.325 44.7981 117.307 44.7511C117.288 44.7042 117.279 44.654 117.28 44.6035C117.278 44.5543 117.287 44.5052 117.305 44.4597C117.324 44.4142 117.353 44.3732 117.389 44.3395C117.46 44.2691 117.555 44.2296 117.655 44.2296C117.755 44.2296 117.851 44.2691 117.922 44.3395C117.958 44.3732 117.987 44.4142 118.006 44.4597C118.024 44.5052 118.033 44.5543 118.031 44.6035C118.033 44.7046 117.995 44.8021 117.925 44.8752C117.855 44.9482 117.759 44.9908 117.658 44.9938Z" fill="white"/>
<path d="M120.613 44.9595V38.8585L120.819 39.0766H119.098V38.6634H121.095V44.9767L120.613 44.9595Z" fill="white"/>
<path d="M129.315 44.9996C128.872 45.0054 128.431 44.9255 128.018 44.7642C127.628 44.6108 127.273 44.3805 126.973 44.087C126.675 43.8004 126.441 43.4543 126.285 43.0711C125.965 42.2597 125.965 41.3572 126.285 40.5458C126.443 40.1642 126.678 39.8187 126.973 39.5299C127.271 39.2363 127.627 39.0076 128.018 38.8584C128.855 38.5372 129.781 38.5372 130.618 38.8584C131.005 39.0092 131.358 39.2355 131.657 39.5242C131.951 39.8126 132.184 40.1584 132.34 40.5401C132.669 41.3556 132.669 42.267 132.34 43.0826C132.182 43.4618 131.95 43.8054 131.657 44.0927C131.357 44.3813 131.004 44.6093 130.618 44.7642C130.203 44.9262 129.761 45.0061 129.315 44.9996ZM129.315 44.5806C129.696 44.5847 130.074 44.5145 130.429 44.374C130.763 44.2455 131.068 44.0502 131.324 43.8C131.708 43.3973 131.967 42.8915 132.069 42.3443C132.171 41.7971 132.111 41.232 131.898 40.718C131.766 40.3924 131.571 40.096 131.324 39.8456C131.068 39.5954 130.763 39.4001 130.429 39.2717C129.712 38.9963 128.918 38.9963 128.202 39.2717C127.87 39.4041 127.567 39.6011 127.312 39.8514C127.057 40.1016 126.854 40.4001 126.715 40.7295C126.432 41.4348 126.432 42.2223 126.715 42.9276C126.851 43.26 127.053 43.5614 127.309 43.8139C127.564 44.0663 127.868 44.2646 128.202 44.3969C128.557 44.5296 128.936 44.592 129.315 44.5806Z" fill="white"/>
<path d="M135.77 44.9595L133.658 40.2474H134.135L136.115 44.6897H135.897L137.923 40.2474H138.382L136.258 44.9422L135.77 44.9595Z" fill="white"/>
<path d="M141.649 44.9939C141.211 45.0023 140.778 44.8975 140.392 44.6897C140.035 44.4896 139.74 44.196 139.537 43.8403C139.326 43.4658 139.219 43.0418 139.227 42.6121C139.218 42.1807 139.318 41.754 139.52 41.3724C139.707 41.0253 139.984 40.7356 140.323 40.5344C140.671 40.3294 141.068 40.2241 141.471 40.2302C141.873 40.2241 142.269 40.3251 142.619 40.523C142.956 40.7222 143.232 41.01 143.417 41.3552C143.618 41.7368 143.719 42.1635 143.71 42.5949C143.712 42.6139 143.712 42.6332 143.71 42.6523C143.71 42.6523 143.71 42.6924 143.71 42.7154H139.566V42.3653H143.469L143.291 42.5375C143.301 42.1959 143.221 41.8577 143.061 41.556C142.913 41.2672 142.686 41.0261 142.407 40.8605C142.128 40.695 141.807 40.6118 141.483 40.6205C141.155 40.6145 140.833 40.7021 140.553 40.8731C140.278 41.0349 140.055 41.2718 139.91 41.556C139.738 41.8567 139.647 42.1969 139.646 42.5432V42.6236C139.64 42.981 139.729 43.3338 139.904 43.6452C140.068 43.9367 140.31 44.1756 140.605 44.3339C140.92 44.5026 141.274 44.5875 141.632 44.5807C141.921 44.5834 142.208 44.5288 142.476 44.42C142.733 44.3127 142.96 44.1431 143.136 43.9264L143.394 44.2248C143.192 44.4799 142.927 44.6778 142.625 44.7988C142.316 44.928 141.984 44.9944 141.649 44.9939Z" fill="white"/>
<path d="M145.648 44.9595V40.2474H146.079V41.5331L146.033 41.3896C146.149 41.0314 146.384 40.7237 146.699 40.5172C147.043 40.3057 147.442 40.1999 147.847 40.213V40.6492H147.738C147.511 40.6362 147.283 40.6731 147.072 40.7574C146.861 40.8417 146.671 40.9713 146.515 41.137C146.202 41.519 146.045 42.0045 146.073 42.4973V44.948L145.648 44.9595Z" fill="white"/>
<path d="M150.888 44.9939C150.518 44.9969 150.15 44.9387 149.798 44.8217C149.509 44.735 149.241 44.5883 149.012 44.3913L149.218 44.0297C149.431 44.2057 149.674 44.3418 149.936 44.4314C150.247 44.5433 150.575 44.5996 150.906 44.5979C151.276 44.6293 151.647 44.5451 151.967 44.3568C152.07 44.2799 152.151 44.1787 152.204 44.0624C152.257 43.9462 152.28 43.8186 152.272 43.6911C152.278 43.5238 152.219 43.3608 152.105 43.2377C151.977 43.1207 151.824 43.0344 151.658 42.9851C151.457 42.92 151.252 42.8701 151.043 42.8359L150.383 42.7039C150.171 42.662 149.964 42.5926 149.769 42.4973C149.591 42.4122 149.437 42.284 149.322 42.1242C149.203 41.9356 149.145 41.7153 149.155 41.4929C149.153 41.2611 149.223 41.0343 149.356 40.8443C149.499 40.6381 149.699 40.4769 149.93 40.3794C150.246 40.2553 150.584 40.1967 150.923 40.2073C151.222 40.2082 151.519 40.2487 151.807 40.3278C152.066 40.3945 152.311 40.5073 152.53 40.6607L152.323 41.0223C152.125 40.8712 151.899 40.7619 151.658 40.7008C151.415 40.6324 151.164 40.5977 150.911 40.5975C150.558 40.5707 150.206 40.6593 149.907 40.8501C149.808 40.9228 149.728 41.0179 149.673 41.1277C149.618 41.2375 149.59 41.3587 149.591 41.4814C149.586 41.567 149.598 41.6528 149.627 41.7337C149.655 41.8146 149.7 41.8888 149.758 41.952C149.88 42.078 150.032 42.1708 150.2 42.2218C150.4 42.2883 150.606 42.3401 150.814 42.3767C151.032 42.4169 151.256 42.4571 151.48 42.5087C151.689 42.5522 151.894 42.6196 152.088 42.7096C152.267 42.7874 152.422 42.9124 152.536 43.0712C152.655 43.2531 152.713 43.4682 152.702 43.6853C152.708 43.9266 152.634 44.163 152.49 44.3568C152.33 44.566 152.113 44.7236 151.864 44.8102C151.553 44.9297 151.222 44.9919 150.888 44.9939Z" fill="white"/>
<path d="M156.446 44.9939C156.01 45.0015 155.579 44.8968 155.195 44.6897C154.838 44.4896 154.542 44.1959 154.34 43.8403C154.129 43.4658 154.022 43.0418 154.03 42.6121C154.02 42.1807 154.121 41.754 154.323 41.3724C154.512 41.0195 154.794 40.7256 155.14 40.523C155.485 40.3205 155.879 40.2172 156.28 40.2245C156.682 40.2172 157.078 40.3183 157.428 40.5172C157.766 40.7161 158.044 41.0039 158.231 41.3494C158.433 41.731 158.533 42.1577 158.524 42.5891C158.526 42.6082 158.526 42.6274 158.524 42.6465C158.521 42.6674 158.521 42.6887 158.524 42.7096H154.38V42.3595H158.283L158.099 42.5317C158.111 42.1907 158.034 41.8525 157.875 41.5503C157.722 41.2648 157.495 41.0261 157.217 40.8597C156.939 40.6933 156.621 40.6054 156.297 40.6054C155.973 40.6054 155.655 40.6933 155.377 40.8597C155.099 41.0261 154.872 41.2648 154.719 41.5503C154.56 41.8568 154.481 42.1982 154.489 42.5432V42.6235C154.483 42.9802 154.57 43.3322 154.742 43.6451C154.909 43.9357 155.153 44.1742 155.448 44.3339C155.763 44.5026 156.117 44.5875 156.475 44.5807C156.762 44.584 157.047 44.5294 157.313 44.42C157.573 44.3144 157.802 44.1446 157.979 43.9264L158.237 44.2248C158.034 44.4788 157.769 44.6764 157.468 44.7988C157.144 44.934 156.797 45.0004 156.446 44.9939Z" fill="white"/>
<path d="M161.582 44.9939C161.272 45.0003 160.963 44.9437 160.675 44.8274C160.442 44.7304 160.242 44.5667 160.101 44.3568C159.963 44.1477 159.891 43.9016 159.895 43.6509C159.893 43.4239 159.951 43.2005 160.061 43.0023C160.198 42.7874 160.399 42.6208 160.635 42.526C160.961 42.3887 161.314 42.326 161.668 42.3423H163.39V42.6924H161.668C161.308 42.6545 160.946 42.7505 160.652 42.9621C160.558 43.0462 160.483 43.1497 160.432 43.2657C160.381 43.3816 160.357 43.5072 160.36 43.6337C160.355 43.7723 160.384 43.91 160.443 44.0357C160.501 44.1613 160.589 44.2713 160.698 44.3568C160.981 44.5514 161.32 44.6463 161.662 44.6266C162.016 44.637 162.366 44.5432 162.667 44.3568C162.934 44.1598 163.135 43.8853 163.241 43.5705L163.367 43.8805C163.247 44.213 163.021 44.4971 162.724 44.6897C162.382 44.9017 161.984 45.0076 161.582 44.9939ZM163.275 44.9595V43.8862V43.7255V41.9692C163.288 41.7872 163.264 41.6044 163.202 41.4324C163.141 41.2605 163.045 41.1032 162.919 40.9706C162.634 40.7234 162.263 40.5995 161.886 40.6262C161.576 40.6244 161.269 40.6809 160.979 40.7927C160.719 40.8963 160.476 41.0417 160.262 41.2231L160.038 40.896C160.287 40.6792 160.575 40.5135 160.888 40.4081C161.22 40.2926 161.569 40.2343 161.921 40.236C162.406 40.2025 162.886 40.3589 163.258 40.6721C163.424 40.8462 163.551 41.0531 163.632 41.2795C163.713 41.5058 163.746 41.7467 163.729 41.9865V44.9652L163.275 44.9595Z" fill="white"/>
<path d="M167.281 44.9939C166.911 44.9968 166.542 44.9387 166.191 44.8217C165.901 44.735 165.633 44.5883 165.404 44.3912L165.611 44.0297C165.824 44.2057 166.067 44.3418 166.328 44.4314C166.639 44.5432 166.968 44.5996 167.298 44.5979C167.669 44.6293 168.04 44.5451 168.36 44.3568C168.463 44.2846 168.547 44.1882 168.604 44.0761C168.661 43.9641 168.689 43.8397 168.687 43.714C168.694 43.5468 168.634 43.3837 168.521 43.2606C168.393 43.1437 168.239 43.0573 168.073 43.0081C167.872 42.9429 167.667 42.893 167.459 42.8588L166.799 42.7268C166.586 42.685 166.38 42.6155 166.185 42.5202C166.007 42.4352 165.853 42.3069 165.737 42.1472C165.621 41.9579 165.565 41.7377 165.576 41.5158C165.572 41.2846 165.64 41.0578 165.772 40.8673C165.915 40.6611 166.114 40.4999 166.346 40.4024C166.661 40.2783 166.999 40.2197 167.338 40.2302C167.637 40.2312 167.934 40.2717 168.222 40.3507C168.481 40.4175 168.726 40.5302 168.945 40.6836L168.739 41.0452C168.541 40.8942 168.314 40.7848 168.073 40.7238C167.83 40.6554 167.579 40.6206 167.327 40.6205C166.975 40.5937 166.625 40.6823 166.328 40.873C166.228 40.9448 166.147 41.0396 166.091 41.1495C166.035 41.2593 166.006 41.3811 166.007 41.5043C166.002 41.59 166.014 41.6758 166.042 41.7566C166.071 41.8375 166.115 41.9118 166.173 41.975C166.295 42.1009 166.447 42.1938 166.615 42.2447C166.816 42.3112 167.021 42.363 167.229 42.3997C167.453 42.4399 167.671 42.48 167.895 42.5317C168.105 42.5752 168.309 42.6426 168.504 42.7326C168.683 42.8104 168.837 42.9353 168.951 43.0942C169.07 43.2761 169.129 43.4911 169.118 43.7083C169.124 43.9495 169.049 44.186 168.905 44.3798C168.746 44.5889 168.528 44.7466 168.28 44.8332C167.96 44.9475 167.621 45.002 167.281 44.9939Z" fill="white"/>
<path d="M174.385 44.5462H178.27V44.9595H173.926V38.6462H178.133V39.0996H174.385V44.5462ZM174.328 41.556H177.737V41.9693H174.328V41.556Z" fill="white"/>
<path d="M182.067 44.9939C181.652 44.9988 181.244 44.8939 180.884 44.6897C180.534 44.493 180.246 44.2029 180.052 43.8518C179.852 43.468 179.748 43.0418 179.748 42.6092C179.748 42.1766 179.852 41.7504 180.052 41.3666C180.248 41.0168 180.536 40.7271 180.884 40.5287C181.245 40.3263 181.653 40.2233 182.067 40.2303C182.468 40.2177 182.866 40.3171 183.214 40.5172C183.549 40.7102 183.823 40.9924 184.006 41.3322C184.211 41.727 184.312 42.1675 184.299 42.6121C184.308 43.0519 184.21 43.4873 184.012 43.8805C183.831 44.2232 183.559 44.5093 183.226 44.707C182.872 44.9032 182.472 45.0022 182.067 44.9939ZM182.095 44.5864C182.433 44.5922 182.766 44.5069 183.059 44.3396C183.346 44.1766 183.581 43.9358 183.737 43.6452C183.899 43.324 183.984 42.9691 183.984 42.6092C183.984 42.2493 183.899 41.8944 183.737 41.5733C183.579 41.2839 183.345 41.0436 183.059 40.8788C182.763 40.717 182.43 40.6323 182.092 40.6323C181.754 40.6323 181.422 40.717 181.125 40.8788C180.842 41.0439 180.609 41.2843 180.454 41.5733C180.291 41.8944 180.207 42.2493 180.207 42.6092C180.207 42.9691 180.291 43.324 180.454 43.6452C180.607 43.936 180.84 44.177 181.125 44.3396C181.427 44.5117 181.771 44.5971 182.118 44.5864H182.095ZM183.989 44.9595V43.4213L184.07 42.6006L183.983 41.7856V38.2846H184.414V44.9595H183.989Z" fill="white"/>
<path d="M188.775 44.9939C188.414 45.0019 188.057 44.9273 187.73 44.7758C187.44 44.6302 187.203 44.3974 187.053 44.11C186.882 43.7685 186.799 43.3897 186.812 43.0081V40.2474H187.282V42.9507C187.267 43.1685 187.296 43.3872 187.366 43.5941C187.435 43.801 187.546 43.9919 187.69 44.1559C187.842 44.3003 188.023 44.4116 188.221 44.4827C188.418 44.5538 188.628 44.5833 188.838 44.5692C189.158 44.5776 189.475 44.5003 189.756 44.3453C190.005 44.195 190.204 43.9756 190.33 43.714C190.474 43.4113 190.545 43.0791 190.537 42.7441V40.2474H190.99V44.9422H190.554V43.6337L190.617 43.7886C190.489 44.1454 190.247 44.4501 189.928 44.6553C189.587 44.8833 189.185 45.0014 188.775 44.9939Z" fill="white"/>
<path d="M195.283 44.9939C194.858 45.0003 194.438 44.8955 194.066 44.6898C193.713 44.487 193.419 44.1938 193.217 43.8403C193.006 43.4659 192.899 43.0418 192.907 42.6121C192.898 42.1769 193.005 41.7471 193.217 41.3667C193.419 41.0158 193.713 40.7263 194.066 40.5287C194.439 40.3248 194.858 40.2219 195.283 40.2303C195.637 40.2238 195.988 40.2964 196.31 40.4426C196.617 40.5836 196.878 40.8084 197.062 41.0912L196.729 41.3322C196.572 41.1028 196.356 40.9202 196.104 40.8042C195.816 40.6791 195.504 40.6208 195.191 40.6337C194.878 40.6467 194.572 40.7305 194.296 40.8788C194.009 41.0435 193.773 41.2837 193.613 41.5733C193.449 41.8952 193.364 42.2511 193.364 42.6121C193.364 42.9731 193.449 43.329 193.613 43.6509C193.773 43.939 194.009 44.1773 194.296 44.3397C194.597 44.5075 194.938 44.5927 195.283 44.5864C195.565 44.5879 195.844 44.5312 196.104 44.42C196.356 44.3017 196.572 44.1173 196.729 43.8862L197.062 44.1273C196.881 44.4126 196.619 44.6382 196.31 44.7758C195.988 44.9239 195.637 44.9984 195.283 44.9939Z" fill="white"/>
<path d="M200.22 44.9939C199.918 45.0009 199.617 44.9482 199.336 44.8389C199.102 44.7425 198.902 44.5786 198.762 44.3683C198.625 44.1586 198.555 43.9125 198.561 43.6624C198.557 43.4359 198.613 43.2124 198.722 43.0138C198.858 42.7989 199.059 42.6322 199.296 42.5374C199.622 42.4002 199.975 42.3374 200.329 42.3538H202.05V42.7039H200.329C199.966 42.6651 199.603 42.7611 199.307 42.9736C199.212 43.0576 199.137 43.1612 199.087 43.2772C199.036 43.3931 199.011 43.5187 199.014 43.6451C199.01 43.7838 199.038 43.9215 199.097 44.0471C199.156 44.1728 199.244 44.2828 199.353 44.3683C199.635 44.5628 199.975 44.6577 200.317 44.638C200.671 44.6484 201.02 44.5546 201.322 44.3683C201.6 44.1746 201.812 43.9001 201.93 43.582L202.05 43.8919C201.932 44.2255 201.706 44.5102 201.408 44.7012C201.051 44.9189 200.636 45.0211 200.22 44.9939ZM201.941 44.9595V43.8862V43.7255V41.9692C201.954 41.7873 201.928 41.6048 201.867 41.433C201.806 41.2612 201.71 41.1038 201.586 40.9706C201.298 40.7242 200.925 40.6005 200.547 40.6262C200.237 40.6244 199.929 40.6809 199.64 40.7927C199.381 40.8963 199.14 41.0417 198.928 41.2231L198.699 40.896C198.947 40.6792 199.236 40.5135 199.548 40.4081C199.88 40.2926 200.23 40.2343 200.581 40.236C201.067 40.2025 201.546 40.3589 201.918 40.6721C202.084 40.8462 202.212 41.0531 202.293 41.2795C202.374 41.5058 202.407 41.7467 202.389 41.9865V44.9652L201.941 44.9595Z" fill="white"/>
<path d="M203.961 40.6492V40.2474H206.796V40.632L203.961 40.6492ZM206.102 44.9939C205.928 45.005 205.753 44.9802 205.589 44.921C205.426 44.8617 205.276 44.7693 205.149 44.6495C205.036 44.5228 204.948 44.3749 204.892 44.2144C204.836 44.0539 204.812 43.8838 204.822 43.714V39.2373H205.275V43.691C205.259 43.9408 205.339 44.1874 205.499 44.3798C205.584 44.4638 205.685 44.5288 205.797 44.5704C205.909 44.6119 206.029 44.6291 206.148 44.6208C206.413 44.6308 206.672 44.5384 206.871 44.3626L207.06 44.6782C206.935 44.7937 206.786 44.8799 206.624 44.9308C206.454 44.9776 206.278 44.9989 206.102 44.9939Z" fill="white"/>
<path d="M209.092 39.0996C209.044 39.1013 208.995 39.0924 208.951 39.0736C208.906 39.0547 208.866 39.0264 208.834 38.9905C208.799 38.9584 208.771 38.9193 208.752 38.8758C208.734 38.8323 208.724 38.7854 208.725 38.738C208.726 38.641 208.765 38.5485 208.834 38.4799C208.902 38.4113 208.995 38.3721 209.092 38.3707C209.14 38.3691 209.189 38.3773 209.234 38.3948C209.279 38.4123 209.32 38.4387 209.355 38.4724C209.39 38.5062 209.418 38.5465 209.436 38.5912C209.455 38.6358 209.465 38.6838 209.465 38.7322C209.464 38.8292 209.425 38.9219 209.356 38.9905C209.323 39.0268 209.282 39.0554 209.236 39.0742C209.19 39.0931 209.141 39.1017 209.092 39.0996ZM208.868 44.9365V40.2474H209.316V44.9422L208.868 44.9365Z" fill="white"/>
<path d="M213.574 44.9939C213.152 45.0004 212.737 44.8955 212.369 44.6897C212.022 44.4846 211.734 44.1916 211.536 43.8403C211.333 43.4608 211.227 43.0369 211.227 42.6063C211.227 42.1757 211.333 41.7518 211.536 41.3724C211.734 41.0238 212.021 40.7344 212.369 40.5344C212.739 40.335 213.153 40.2306 213.574 40.2306C213.995 40.2306 214.409 40.335 214.779 40.5344C215.128 40.7328 215.415 41.0225 215.611 41.3724C215.811 41.7531 215.915 42.1765 215.915 42.6063C215.915 43.0362 215.811 43.4596 215.611 43.8403C215.416 44.1935 215.128 44.487 214.779 44.6897C214.411 44.8947 213.995 44.9996 213.574 44.9939ZM213.574 44.5864C213.914 44.592 214.248 44.5068 214.544 44.3396C214.829 44.177 215.062 43.936 215.215 43.6452C215.378 43.324 215.462 42.9691 215.462 42.6092C215.462 42.2493 215.378 41.8944 215.215 41.5732C215.062 41.2824 214.829 41.0414 214.544 40.8788C214.246 40.717 213.913 40.6323 213.574 40.6323C213.235 40.6323 212.902 40.717 212.604 40.8788C212.318 41.0414 212.085 41.2824 211.933 41.5732C211.77 41.8944 211.685 42.2493 211.685 42.6092C211.685 42.9691 211.77 43.324 211.933 43.6452C212.085 43.936 212.318 44.177 212.604 44.3396C212.899 44.5076 213.234 44.5929 213.574 44.5864Z" fill="white"/>
<path d="M220.145 40.2475C220.492 40.2375 220.837 40.3124 221.149 40.4656C221.434 40.6118 221.665 40.845 221.809 41.1313C221.98 41.4729 222.063 41.8517 222.05 42.2333V44.9767H221.603V42.2677C221.632 41.8288 221.488 41.3959 221.201 41.0625C221.049 40.9166 220.869 40.8044 220.671 40.7332C220.473 40.662 220.263 40.6334 220.053 40.6492C219.721 40.6409 219.393 40.718 219.1 40.8731C218.836 41.0164 218.622 41.2365 218.486 41.5044C218.336 41.8052 218.263 42.1385 218.274 42.4744V44.9767H217.82V40.2475H218.274V41.5503L218.211 41.4068C218.345 41.0454 218.592 40.7372 218.917 40.5287C219.29 40.3174 219.717 40.2197 220.145 40.2475Z" fill="white"/>
<path d="M227.457 44.9594V38.6461H229.718C230.182 38.6351 230.644 38.7211 231.073 38.8987C231.43 39.0463 231.734 39.2984 231.945 39.6218C232.147 39.9708 232.253 40.3667 232.253 40.7697C232.253 41.1727 232.147 41.5686 231.945 41.9176C231.734 42.2427 231.43 42.4967 231.073 42.6465C230.644 42.824 230.182 42.91 229.718 42.899H227.71L227.916 42.6809V44.9767L227.457 44.9594ZM227.916 42.7096L227.71 42.4858H229.718C230.268 42.5261 230.814 42.3672 231.256 42.0381C231.423 41.8741 231.556 41.6785 231.647 41.4627C231.737 41.2469 231.784 41.0152 231.784 40.7812C231.784 40.5472 231.737 40.3155 231.647 40.0997C231.556 39.8839 231.423 39.6883 231.256 39.5243C230.814 39.1952 230.268 39.0363 229.718 39.0766H227.71L227.916 38.8528V42.7096Z" fill="white"/>
<path d="M234.264 44.9595V38.2846H234.711V44.9595H234.264Z" fill="white"/>
<path d="M238.414 44.9939C238.106 44.9995 237.799 44.9429 237.513 44.8274C237.281 44.7279 237.082 44.5647 236.939 44.3568C236.805 44.146 236.735 43.9007 236.738 43.6509C236.737 43.4239 236.794 43.2005 236.905 43.0023C237.038 42.7841 237.24 42.6164 237.479 42.526C237.805 42.3887 238.158 42.326 238.512 42.3423H240.234V42.6924H238.512C238.15 42.6536 237.786 42.7497 237.49 42.9621C237.394 43.0525 237.317 43.1626 237.267 43.2849C237.217 43.4073 237.193 43.539 237.198 43.6713C237.203 43.8035 237.236 43.9331 237.295 44.0514C237.355 44.1697 237.439 44.2738 237.542 44.3568C237.822 44.5525 238.16 44.6476 238.5 44.6266C238.854 44.637 239.204 44.5432 239.505 44.3568C239.786 44.1662 239.999 43.8907 240.113 43.5705L240.239 43.8804C240.117 44.2118 239.892 44.4953 239.597 44.6897C239.242 44.9082 238.83 45.0142 238.414 44.9939ZM240.136 44.9594V43.8862V43.7255V41.9692C240.148 41.7873 240.123 41.6047 240.062 41.433C240.001 41.2612 239.905 41.1038 239.78 40.9706C239.493 40.7231 239.12 40.5993 238.741 40.6262C238.431 40.6249 238.124 40.6814 237.835 40.7927C237.575 40.8963 237.335 41.0417 237.123 41.2231L236.899 40.896C237.146 40.6805 237.433 40.5148 237.743 40.4081C238.075 40.2934 238.424 40.2352 238.776 40.2359C239.263 40.2028 239.744 40.3591 240.119 40.6721C240.284 40.8467 240.41 41.0538 240.49 41.2801C240.57 41.5065 240.602 41.7471 240.584 41.9865V44.9652L240.136 44.9594Z" fill="white"/>
<path d="M242.156 40.6492V40.2474H244.963V40.632L242.156 40.6492ZM244.297 44.9939C244.124 45.0056 243.95 44.9811 243.787 44.9217C243.624 44.8624 243.475 44.7697 243.35 44.6495C243.237 44.5228 243.149 44.3749 243.093 44.2144C243.037 44.0539 243.013 43.8838 243.023 43.714V39.2373H243.471V43.691C243.454 43.9408 243.534 44.1874 243.694 44.3798C243.779 44.4635 243.881 44.5283 243.993 44.5698C244.105 44.6114 244.224 44.6288 244.343 44.6208C244.61 44.63 244.87 44.5377 245.072 44.3626L245.261 44.6782C245.136 44.7929 244.987 44.8791 244.825 44.9308C244.653 44.9772 244.475 44.9985 244.297 44.9939Z" fill="white"/>
<path d="M246.277 40.6492V40.2475H249.084V40.632L246.277 40.6492ZM247.138 44.9595V39.5415C247.124 39.1973 247.245 38.8611 247.477 38.606C247.603 38.4815 247.754 38.3853 247.921 38.324C248.087 38.2626 248.264 38.2374 248.441 38.2502C248.616 38.2492 248.79 38.2743 248.958 38.3248C249.111 38.3683 249.253 38.4469 249.371 38.5543L249.187 38.8987C249.098 38.8071 248.987 38.7382 248.866 38.6978C248.734 38.656 248.597 38.6347 248.458 38.6347C248.338 38.6263 248.218 38.6434 248.105 38.685C247.992 38.7265 247.89 38.7916 247.804 38.8757C247.64 39.0728 247.56 39.3262 247.58 39.5817V44.9595H247.138Z" fill="white"/>
<path d="M252.293 44.9939C251.873 45.0011 251.459 44.8961 251.093 44.6897C250.744 44.4854 250.455 44.1923 250.255 43.8403C250.052 43.4608 249.945 43.0369 249.945 42.6063C249.945 42.1758 250.052 41.7519 250.255 41.3724C250.455 41.0234 250.744 40.7341 251.093 40.5344C251.458 40.3251 251.873 40.2199 252.293 40.2302C252.714 40.2218 253.131 40.3268 253.498 40.5344C253.846 40.7328 254.134 41.0226 254.33 41.3724C254.534 41.7519 254.64 42.1758 254.64 42.6063C254.64 43.0369 254.534 43.4608 254.33 43.8403C254.135 44.1935 253.847 44.487 253.498 44.6897C253.13 44.8948 252.714 44.9996 252.293 44.9939ZM252.293 44.5864C252.632 44.5921 252.967 44.5069 253.263 44.3396C253.548 44.177 253.781 43.936 253.934 43.6452C254.097 43.324 254.181 42.9691 254.181 42.6092C254.181 42.2493 254.097 41.8944 253.934 41.5733C253.787 41.2855 253.563 41.0449 253.286 40.8788C252.988 40.717 252.654 40.6323 252.316 40.6323C251.977 40.6323 251.643 40.717 251.346 40.8788C251.063 41.0455 250.831 41.2855 250.674 41.5733C250.512 41.8944 250.427 42.2493 250.427 42.6092C250.427 42.9691 250.512 43.324 250.674 43.6452C250.83 43.9341 251.062 44.1745 251.346 44.3396C251.634 44.5037 251.961 44.5888 252.293 44.5864Z" fill="white"/>
<path d="M256.574 44.9595V40.2474H257.005V41.5331L256.959 41.3896C257.075 41.0314 257.31 40.7237 257.625 40.5172C257.969 40.3057 258.368 40.1999 258.772 40.213V40.6492H258.663C258.436 40.6362 258.209 40.6731 257.998 40.7574C257.787 40.8417 257.597 40.9713 257.441 41.137C257.126 41.5176 256.968 42.0041 256.999 42.4973V44.948L256.574 44.9595Z" fill="white"/>
<path d="M266.417 40.2475C266.759 40.2375 267.098 40.3125 267.404 40.4656C267.685 40.6141 267.912 40.8469 268.053 41.1313C268.219 41.4744 268.299 41.8524 268.288 42.2333V44.9767H267.84V42.2677C267.868 41.831 267.729 41.4 267.45 41.0624C267.31 40.9208 267.141 40.8106 266.955 40.7394C266.769 40.6681 266.57 40.6374 266.371 40.6492C266.052 40.6407 265.737 40.718 265.459 40.873C265.21 41.0239 265.011 41.2431 264.885 41.5044C264.74 41.8066 264.669 42.1392 264.678 42.4743V44.9767H264.19V42.2677C264.218 41.831 264.078 41.4 263.8 41.0624C263.66 40.9208 263.491 40.8106 263.305 40.7394C263.119 40.6681 262.92 40.6374 262.721 40.6492C262.402 40.6407 262.087 40.718 261.808 40.873C261.56 41.0239 261.361 41.2431 261.234 41.5044C261.089 41.8066 261.018 42.1392 261.028 42.4743V44.9767H260.58V40.2475H261.011V41.5388L260.947 41.3953C261.077 41.0377 261.321 40.7329 261.642 40.5287C261.985 40.3134 262.384 40.2037 262.79 40.213C263.211 40.198 263.627 40.3209 263.972 40.5631C264.306 40.8242 264.524 41.2052 264.58 41.6249L264.425 41.556C264.55 41.1634 264.8 40.8225 265.137 40.5861C265.516 40.3382 265.965 40.2194 266.417 40.2475Z" fill="white"/>
</svg>
