<svg width="269" height="60" viewBox="0 0 269 60" fill="none" xmlns="http://www.w3.org/2000/svg">
<path d="M52.7892 13.0947C53.0888 14.0069 53.3674 14.8413 53.628 15.6816C53.7044 15.9318 53.8197 16.0306 54.0908 16.0246C54.9791 16.0081 55.8673 16.0246 56.8709 16.0246C56.2298 16.492 55.6831 16.8949 55.1334 17.2918C54.341 17.8625 54.3395 17.861 54.6421 18.7897C54.8608 19.4283 55.0443 20.0784 55.1918 20.737C54.7424 20.4105 54.2931 20.0794 53.8317 19.7574C53.4842 19.5117 53.1292 19.0878 52.7832 19.0878C52.4372 19.0878 52.0762 19.5147 51.7347 19.7619C51.2778 20.0869 50.8269 20.418 50.2787 20.8104C50.403 20.412 50.4944 20.1169 50.5888 19.8233C50.7655 19.2766 50.9303 18.7253 51.128 18.1861C51.2194 17.9314 51.1625 17.7906 50.9468 17.6394C50.2263 17.1346 49.5223 16.6103 48.7344 16.0366C48.9351 16.0246 49.0489 16.0126 49.1613 16.0126C49.9447 16.0126 50.7281 16.0037 51.5115 16.0126C51.6066 16.0278 51.7038 16.0049 51.782 15.9488C51.8603 15.8927 51.9132 15.808 51.9294 15.7131C52.1571 14.9641 52.4072 14.2226 52.6499 13.4782C52.6753 13.3763 52.7218 13.27 52.7892 13.0947Z" fill="#FFCC05"/>
<path d="M26.1016 55.1979C27.0003 55.1979 27.8211 55.1979 28.6345 55.1979C29.2861 55.1979 29.1603 55.2922 29.3834 54.6466C29.6396 53.8827 29.8807 53.1158 30.1638 52.25C30.414 53.0184 30.6357 53.685 30.8499 54.3471C31.121 55.1949 31.1195 55.1964 32.0018 55.1964H34.2037C34.0868 55.3012 34.0254 55.3671 33.955 55.4181C33.3034 55.8944 32.6548 56.3767 31.9928 56.8381C31.9473 56.8607 31.9068 56.892 31.8735 56.9304C31.8402 56.9687 31.8148 57.0132 31.7988 57.0614C31.7828 57.1095 31.7765 57.1604 31.7802 57.211C31.7839 57.2617 31.7976 57.311 31.8205 57.3564C32.0827 58.1188 32.3253 58.8887 32.5695 59.6556C32.5979 59.744 32.6249 59.8339 32.6758 59.9986C31.8984 59.4339 31.1779 58.9276 30.4814 58.3959C30.2492 58.2191 30.0935 58.1997 29.8493 58.3869C29.1528 58.9232 28.4323 59.4279 27.6429 60.0001C27.7328 59.711 27.7927 59.4998 27.8646 59.2901C28.0773 58.64 28.2855 57.987 28.5072 57.3429C28.5512 57.257 28.5594 57.1573 28.5299 57.0654C28.5004 56.9736 28.4357 56.8972 28.3499 56.853C27.6983 56.4037 27.0602 55.9229 26.4176 55.454C26.3352 55.3911 26.2573 55.3222 26.1016 55.1979Z" fill="#FFCC05"/>
<path d="M7.58073 13.1815C7.84885 14.0053 8.12746 14.8292 8.37611 15.656C8.46299 15.9436 8.6023 16.032 8.89738 16.026C9.77572 16.0018 10.6547 16.0242 11.5307 16.0934L10.8431 16.5967C10.3578 16.9487 9.88 17.3127 9.3842 17.6452C9.33611 17.6689 9.29324 17.7019 9.25812 17.7424C9.22301 17.7829 9.19636 17.83 9.17975 17.881C9.16313 17.932 9.1569 17.9857 9.1614 18.0391C9.1659 18.0925 9.18104 18.1445 9.20595 18.192C9.49205 19.0218 9.75118 19.8606 9.96837 20.7474C9.81858 20.638 9.66879 20.5302 9.519 20.4208C8.9543 20.0119 8.38211 19.6105 7.83088 19.1851C7.61519 19.0203 7.46839 19.0353 7.25869 19.1941C6.65953 19.6539 6.0334 20.0928 5.41927 20.5347C5.3249 20.6021 5.22305 20.6635 5.03731 20.7848C5.30393 19.9595 5.54808 19.233 5.77277 18.502C6.00794 17.7381 6.10381 17.9538 5.43125 17.4535C4.80813 16.9891 4.17602 16.5383 3.45703 16.0155C4.31532 16.0155 5.05827 16.0245 5.79973 16.0155C6.75838 16.0005 6.50973 16.1818 6.83028 15.2546C7.06845 14.5611 7.27965 13.863 7.51332 13.1665L7.58073 13.1815Z" fill="#FFCC05"/>
<path d="M13.1326 6.47112C14.0134 6.47112 14.8926 6.45913 15.7719 6.47112C16.0565 6.47112 16.1778 6.37824 16.2587 6.11012C16.5134 5.2713 16.7965 4.44146 17.1005 3.50977C17.3881 4.38754 17.6712 5.15745 17.8884 5.95883C18.0008 6.36776 18.188 6.49358 18.5999 6.47561C19.4292 6.44262 20.2598 6.46314 21.0864 6.53702L20.6371 6.86956C20.0634 7.28747 19.4957 7.71287 18.913 8.11731C18.8708 8.13966 18.8335 8.17012 18.8031 8.20694C18.7728 8.24376 18.75 8.28621 18.7361 8.33186C18.7221 8.37751 18.7174 8.42545 18.722 8.47294C18.7267 8.52044 18.7407 8.56654 18.7632 8.60862C19.0119 9.3381 19.2425 10.0736 19.4777 10.806C19.5151 10.9184 19.5466 11.0322 19.6125 11.2554C19.2455 10.9858 18.9624 10.7806 18.6808 10.5754C18.2464 10.2593 17.8031 9.95224 17.3777 9.6227C17.1769 9.47291 17.0346 9.47291 16.8339 9.6227C16.1314 10.1515 15.4139 10.6592 14.6305 11.227C14.6665 11.0577 14.6784 10.9708 14.7054 10.8884C14.9421 10.156 15.1653 9.41749 15.4274 8.694C15.5412 8.37944 15.4618 8.21318 15.1982 8.03193C14.4942 7.54661 13.8097 7.03283 13.1191 6.53403L13.1326 6.47112Z" fill="#FFCC05"/>
<path d="M39.2786 6.47066C40.1459 6.47066 41.0146 6.45868 41.8819 6.47066C42.162 6.47066 42.2938 6.38978 42.3762 6.11716C42.6309 5.27833 42.9125 4.447 43.2181 3.50781C43.4757 4.29271 43.7019 4.98175 43.9266 5.66928C44.1857 6.46467 44.1842 6.46467 45.0065 6.46467H47.3058C46.5389 7.02339 45.8753 7.53567 45.1788 8.00152C44.8523 8.21871 44.7923 8.41643 44.9271 8.78192C45.2142 9.56486 45.4509 10.3654 45.6357 11.1786C45.1039 10.7951 44.5707 10.4131 44.0404 10.0252C43.2225 9.42602 43.224 9.42602 42.4047 10.0252C41.8705 10.4272 41.316 10.8017 40.7435 11.1471C40.8199 10.9 40.8933 10.6513 40.9757 10.3982C41.1659 9.799 41.3472 9.20733 41.5569 8.62015C41.6483 8.36551 41.5928 8.2262 41.3741 8.07342C40.6552 7.57162 39.9526 7.04735 39.2441 6.53208L39.2786 6.47066Z" fill="#FFCC05"/>
<path d="M53.8003 33.7521C54.0654 32.9402 54.3141 32.1239 54.6002 31.3195C54.711 31.0079 54.6421 30.8402 54.374 30.6574C53.6663 30.1742 52.9872 29.6506 52.3398 29.0891H53.0888C53.7134 29.0891 54.338 29.0771 54.9612 29.0891C55.0144 29.0979 55.0688 29.096 55.1213 29.0836C55.1739 29.0713 55.2234 29.0486 55.2671 29.017C55.3108 28.9854 55.3479 28.9455 55.3761 28.8995C55.4043 28.8535 55.4231 28.8024 55.4315 28.7491C55.6906 27.9088 55.9722 27.0759 56.3168 26.2236C56.3632 26.3629 56.4081 26.5022 56.4546 26.6415C56.6822 27.3381 56.9219 28.0331 57.1316 28.7386C57.214 29.0112 57.3533 29.0981 57.6304 29.0921C58.4947 29.0771 59.359 29.0921 60.2517 29.1595L59.4129 29.7767C58.998 30.0762 58.5921 30.3983 58.1622 30.6754C57.915 30.8372 57.8626 30.9915 57.9584 31.2746C58.246 32.0924 58.4992 32.9223 58.7973 33.8465C58.622 33.7281 58.5172 33.6622 58.4153 33.5888C57.7922 33.1394 57.1646 32.6901 56.5474 32.2242C56.479 32.1562 56.3863 32.118 56.2898 32.118C56.1933 32.118 56.1006 32.1562 56.0322 32.2242C55.3192 32.7575 54.5912 33.2728 53.8692 33.7955L53.8003 33.7521Z" fill="#FFCC05"/>
<path d="M7.99726 29.179C7.34717 29.6523 6.70907 30.1451 6.03951 30.5915C5.69949 30.8177 5.60062 31.0199 5.7549 31.4244C6.0455 32.1868 6.26869 32.9747 6.5443 33.821C6.4035 33.7386 6.32411 33.7012 6.25371 33.6502C5.60811 33.1844 4.95653 32.7275 4.32592 32.2452C4.10573 32.0759 3.95444 32.0954 3.74923 32.2557C3.16356 32.6976 2.56439 33.123 1.97122 33.5544C1.85439 33.6397 1.73306 33.7191 1.52186 33.8539C1.78249 33.0481 2.02215 32.3381 2.24234 31.6221C2.51346 30.7413 2.59285 31.0064 1.86038 30.4612C1.36008 30.0882 0.852304 29.7272 0.349012 29.3587C0.254644 29.2898 0.166266 29.209 0 29.0786C0.939179 29.0786 1.77949 29.0607 2.61832 29.0861C2.95983 29.0966 3.11861 28.9888 3.21747 28.6592C3.45863 27.8429 3.73575 27.037 4.03533 26.1128C4.266 26.8153 4.46372 27.4115 4.65845 28.0076C5.01794 29.0891 5.01794 29.0891 6.13687 29.0891H7.9673L7.99726 29.179Z" fill="#FFCC05"/>
<path d="M19.621 56.5007C18.8286 55.9255 18.1111 55.4207 17.4131 54.8919C17.1899 54.7227 17.0326 54.7107 16.8139 54.883C16.1114 55.4147 15.3939 55.9225 14.6315 56.4752C14.6449 56.3865 14.6629 56.2985 14.6854 56.2116C14.9385 55.4192 15.1872 54.6253 15.4568 53.8389C15.4997 53.752 15.5066 53.6517 15.476 53.5598C15.4454 53.4678 15.3799 53.3916 15.2935 53.3476C14.6719 52.9102 14.0623 52.4608 13.4481 52.013C13.3366 51.9376 13.2467 51.8343 13.1875 51.7134H14.5236C14.952 51.7134 15.3804 51.7029 15.8088 51.7134C15.912 51.7289 16.0172 51.703 16.1014 51.6412C16.1856 51.5795 16.2419 51.487 16.2582 51.3839C16.5173 50.5435 16.7974 49.7092 17.0955 48.7925C17.1614 48.9423 17.2049 49.0142 17.2303 49.0921C17.4595 49.7901 17.7186 50.4791 17.8999 51.1891C18.0122 51.628 18.2294 51.7344 18.6488 51.7179C19.4547 51.6864 20.2621 51.7089 21.1728 51.7089C20.9945 51.8437 20.8867 51.9261 20.7773 52.0085C20.1782 52.4414 19.5985 52.8848 18.9918 53.2997C18.7492 53.4659 18.6923 53.6172 18.7866 53.8988C19.0637 54.7332 19.3199 55.5705 19.621 56.5007Z" fill="#FFCC05"/>
<path d="M30.1618 0C30.4613 0.933193 30.7474 1.76603 31.0021 2.60785C31.0106 2.66747 31.031 2.72478 31.0621 2.77636C31.0933 2.82793 31.1344 2.87273 31.1832 2.90808C31.2319 2.94343 31.2873 2.96862 31.346 2.98215C31.4047 2.99568 31.4655 2.99726 31.5248 2.98682C32.3921 2.96884 33.2609 2.98682 34.2211 2.98682C33.896 3.22648 33.6294 3.4257 33.3613 3.62193C32.9119 3.95446 32.4625 4.29598 31.9907 4.60905C31.7765 4.75884 31.742 4.89065 31.8214 5.12582C32.1105 5.96914 32.3786 6.81845 32.6887 7.76962C32.0776 7.32025 31.5488 6.94577 31.0216 6.56081C30.1678 5.93619 30.1693 5.93469 29.3244 6.55332C28.7927 6.94128 28.2594 7.32624 27.6438 7.77261C27.9434 6.84242 28.204 6.00359 28.4931 5.17675C28.592 4.89664 28.5455 4.74385 28.2984 4.57759C27.5779 4.08028 26.8784 3.55303 26.1055 2.98981C27.0701 2.98981 27.9479 2.97933 28.8256 2.98981C28.9393 3.00665 29.0551 2.97806 29.1479 2.91023C29.2407 2.8424 29.303 2.74077 29.3214 2.62732C29.5746 1.78101 29.8562 0.946674 30.1618 0Z" fill="#FFCC05"/>
<path d="M45.6219 56.4154C44.9718 55.9421 44.3053 55.4897 43.6747 54.9894C43.3391 54.7213 43.107 54.7153 42.7654 54.9894C42.1303 55.5017 41.4488 55.9586 40.6983 56.5023C40.965 55.6799 41.2106 54.9565 41.4338 54.2285C41.6884 53.4001 41.7828 53.6398 41.0833 53.12C40.562 52.7336 40.0348 52.3561 39.5105 51.9726C39.4371 51.9202 39.3727 51.8543 39.2109 51.7135H39.9269C40.5755 51.7135 41.2256 51.703 41.8742 51.7135C41.9304 51.7233 41.988 51.7218 42.0437 51.709C42.0993 51.6963 42.1519 51.6725 42.1982 51.6392C42.2445 51.6058 42.2837 51.5635 42.3135 51.5148C42.3432 51.4661 42.363 51.4119 42.3715 51.3555C42.5872 50.629 42.8343 49.9115 43.0695 49.191C43.1055 49.0787 43.1504 48.9693 43.2268 48.7656C43.4829 49.5505 43.6986 50.2471 43.9353 50.9346C44.2454 51.8333 44.0042 51.697 45.0048 51.7075C45.7133 51.715 46.4218 51.7075 47.2516 51.7075C47.0704 51.8573 46.9775 51.9367 46.8772 52.0071C46.263 52.4565 45.6519 52.9058 45.0317 53.3417C44.9458 53.3865 44.8809 53.4633 44.8512 53.5555C44.8215 53.6478 44.8293 53.748 44.873 53.8345C45.1561 54.6659 45.4182 55.5047 45.6878 56.3405L45.6219 56.4154Z" fill="#FFCC05"/>
<path d="M7.58243 39.3096C7.84157 40.108 8.12168 40.9003 8.35235 41.7062C8.45571 42.0702 8.63396 42.1825 9.00094 42.1676C9.69746 42.1391 10.397 42.1586 11.098 42.1676C11.2133 42.1676 11.3302 42.181 11.5623 42.1945C11.2702 42.4102 11.071 42.5615 10.8688 42.7083C10.403 43.0468 9.9506 43.4048 9.46678 43.7134C9.15522 43.9111 9.12676 44.1148 9.2421 44.4399C9.5237 45.2338 9.77086 46.0396 10.0659 46.9459C9.86972 46.8066 9.74839 46.7212 9.62856 46.6328C9.0294 46.1954 8.41377 45.7655 7.8191 45.3132C7.78365 45.2767 7.74126 45.2478 7.69444 45.228C7.64761 45.2083 7.59731 45.1981 7.54648 45.1981C7.49566 45.1981 7.44536 45.2083 7.39853 45.228C7.35171 45.2478 7.30932 45.2767 7.27387 45.3132C6.65973 45.779 6.02912 46.2254 5.4045 46.6762C5.31912 46.7392 5.22624 46.7946 5.05249 46.9084C5.1124 46.7002 5.14387 46.5774 5.18131 46.4591C5.40899 45.761 5.63068 45.06 5.87034 44.362C5.96621 44.0879 5.93175 43.9231 5.67861 43.7524C5.07046 43.3404 4.48029 42.8956 3.89162 42.4627C3.77926 42.3865 3.68763 42.2835 3.625 42.1631H4.44584C5.03302 42.1631 5.62019 42.1511 6.20737 42.1631C6.49047 42.1706 6.61779 42.0612 6.70017 41.7946C6.95182 40.9648 7.23193 40.1469 7.50005 39.3186L7.58243 39.3096Z" fill="#FFCC05"/>
<path d="M55.173 46.8486C54.4825 46.3468 53.783 45.8555 53.1044 45.3372C52.8693 45.159 52.709 45.1485 52.4678 45.3372C51.7713 45.8705 51.0508 46.3738 50.2599 46.9475C50.5595 46.0217 50.8156 45.1844 51.1047 44.3591C51.2006 44.0805 51.1602 43.9217 50.913 43.7509C50.221 43.2716 49.5469 42.7653 48.7695 42.2006C48.9837 42.1826 49.0931 42.1662 49.2009 42.1647C49.9499 42.1647 50.6988 42.1527 51.4478 42.1647C51.7309 42.1647 51.8597 42.0658 51.9406 41.7992C52.1937 40.9693 52.4723 40.1515 52.7674 39.2393C52.8348 39.389 52.8812 39.4804 52.9172 39.5733C53.1584 40.3043 53.413 41.0337 53.6287 41.7722C53.7186 42.0793 53.8743 42.1706 54.1769 42.1647C55.0187 42.1497 55.8621 42.1647 56.8012 42.1647C56.6514 42.2935 56.5825 42.3669 56.5017 42.4268C55.9025 42.8597 55.3228 43.3046 54.7147 43.715C54.4361 43.9022 54.3612 44.0775 54.4795 44.4055C54.7656 45.1964 55.0082 46.0008 55.2674 46.8022L55.173 46.8486Z" fill="#FFCC05"/>
<path d="M28.3153 34.0877V36.3211H19.0059V24.2959H28.0861V26.5278H21.765V29.1386H27.3476V31.3061H21.765V34.0877H28.3153Z" fill="#2B3E96"/>
<path d="M31.8608 35.1018C30.9031 34.1521 30.4248 32.795 30.4258 31.0305V24.2959H33.2089V30.9256C33.2089 33.0786 34.1021 34.1546 35.8886 34.1536C36.7584 34.1536 37.4224 33.8935 37.8808 33.3732C38.3392 32.8529 38.5683 32.0371 38.5683 30.9256V24.2959H41.3155V31.0365C41.3155 32.801 40.8376 34.1581 39.882 35.1078C38.9263 36.0574 37.5902 36.5308 35.8736 36.5278C34.155 36.5278 32.8174 36.0524 31.8608 35.1018Z" fill="#2B3E96"/>
<path d="M93.6652 40.9823L93.625 38.6865H94.0382L94.0038 40.9823H93.6652Z" fill="#2B3E96"/>
<path d="M77.5358 28.2811C77.5358 28.6076 77.5141 28.9015 77.4705 29.1628H70.8575C70.9119 29.8159 71.1405 30.3276 71.5433 30.6977C71.9461 31.0678 72.4413 31.2529 73.0292 31.2529C73.8783 31.2529 74.4824 30.8882 74.8416 30.1588H77.3072C77.046 31.0297 76.5452 31.7481 75.805 32.3142C75.0648 32.8694 74.1558 33.147 73.0782 33.147C72.2073 33.147 71.4235 32.9565 70.7269 32.5755C70.0411 32.1836 69.5022 31.6338 69.1103 30.9263C68.7293 30.2187 68.5388 29.4023 68.5388 28.477C68.5388 27.5408 68.7293 26.719 69.1103 26.0114C69.4913 25.3038 70.0247 24.7596 70.7105 24.3786C71.3963 23.9976 72.1855 23.8071 73.0782 23.8071C73.9381 23.8071 74.7056 23.9921 75.3805 24.3622C76.0663 24.7323 76.5942 25.2603 76.9643 25.9461C77.3453 26.621 77.5358 27.3993 77.5358 28.2811ZM75.1682 27.6279C75.1573 27.0401 74.9451 26.572 74.5314 26.2237C74.1177 25.8645 73.6116 25.6848 73.0128 25.6848C72.4468 25.6848 71.9678 25.859 71.5759 26.2073C71.1949 26.5448 70.9609 27.0183 70.8738 27.6279H75.1682ZM87.7442 23.954V33H85.4419V31.857C85.148 32.2489 84.7615 32.5591 84.2826 32.7877C83.8145 33.0054 83.3029 33.1143 82.7477 33.1143C82.0401 33.1143 81.4142 32.9673 80.8699 32.6734C80.3256 32.3686 79.8956 31.9278 79.58 31.3508C79.2752 30.763 79.1228 30.0663 79.1228 29.2608V23.954H81.4088V28.9342C81.4088 29.6527 81.5884 30.2078 81.9476 30.5997C82.3068 30.9807 82.7967 31.1712 83.4172 31.1712C84.0485 31.1712 84.5438 30.9807 84.903 30.5997C85.2623 30.2078 85.4419 29.6527 85.4419 28.9342V23.954H87.7442ZM92.2857 25.3583C92.5796 24.8793 92.9606 24.5037 93.4287 24.2316C93.9077 23.9595 94.4519 23.8234 95.0615 23.8234V26.2237H94.4574C93.7389 26.2237 93.1946 26.3924 92.8245 26.7299C92.4653 27.0673 92.2857 27.6551 92.2857 28.4933V33H89.9997V23.954H92.2857V25.3583ZM100.618 33.147C99.7472 33.147 98.9634 32.9565 98.2668 32.5755C97.5701 32.1836 97.0204 31.6338 96.6176 30.9263C96.2257 30.2187 96.0298 29.4023 96.0298 28.477C96.0298 27.5517 96.2311 26.7353 96.6339 26.0277C97.0476 25.3202 97.6082 24.7759 98.3158 24.3949C99.0233 24.003 99.8125 23.8071 100.683 23.8071C101.554 23.8071 102.343 24.003 103.051 24.3949C103.759 24.7759 104.314 25.3202 104.717 26.0277C105.13 26.7353 105.337 27.5517 105.337 28.477C105.337 29.4023 105.125 30.2187 104.7 30.9263C104.287 31.6338 103.72 32.1836 103.002 32.5755C102.294 32.9565 101.5 33.147 100.618 33.147ZM100.618 31.1549C101.032 31.1549 101.418 31.0569 101.777 30.861C102.148 30.6541 102.441 30.3493 102.659 29.9466C102.877 29.5438 102.986 29.0539 102.986 28.477C102.986 27.617 102.757 26.9585 102.3 26.5013C101.854 26.0332 101.304 25.7991 100.651 25.7991C99.9976 25.7991 99.4479 26.0332 99.0015 26.5013C98.5661 26.9585 98.3484 27.617 98.3484 28.477C98.3484 29.337 98.5607 30.001 98.9852 30.4691C99.4206 30.9263 99.9649 31.1549 100.618 31.1549ZM109.3 25.2603C109.594 24.8466 109.997 24.5037 110.508 24.2316C111.031 23.9486 111.624 23.8071 112.288 23.8071C113.061 23.8071 113.758 23.9976 114.378 24.3786C115.009 24.7596 115.505 25.3038 115.864 26.0114C116.234 26.7081 116.419 27.5191 116.419 28.4444C116.419 29.3696 116.234 30.1915 115.864 30.91C115.505 31.6175 115.009 32.1672 114.378 32.5591C113.758 32.951 113.061 33.147 112.288 33.147C111.624 33.147 111.036 33.0109 110.524 32.7387C110.024 32.4666 109.616 32.1237 109.3 31.71V37.3107H107.014V23.954H109.3V25.2603ZM114.084 28.4444C114.084 27.9001 113.97 27.432 113.741 27.0401C113.523 26.6373 113.23 26.3325 112.859 26.1257C112.5 25.9189 112.108 25.8155 111.684 25.8155C111.27 25.8155 110.878 25.9243 110.508 26.142C110.149 26.3489 109.855 26.6537 109.626 27.0564C109.409 27.4592 109.3 27.9327 109.3 28.477C109.3 29.0213 109.409 29.4948 109.626 29.8976C109.855 30.3004 110.149 30.6106 110.508 30.8283C110.878 31.0351 111.27 31.1386 111.684 31.1386C112.108 31.1386 112.5 31.0297 112.859 30.812C113.23 30.5943 113.523 30.284 113.741 29.8813C113.97 29.4785 114.084 28.9995 114.084 28.4444ZM126.489 28.2811C126.489 28.6076 126.468 28.9015 126.424 29.1628H119.811C119.865 29.8159 120.094 30.3276 120.497 30.6977C120.9 31.0678 121.395 31.2529 121.983 31.2529C122.832 31.2529 123.436 30.8882 123.795 30.1588H126.261C126 31.0297 125.499 31.7481 124.759 32.3142C124.018 32.8694 123.109 33.147 122.032 33.147C121.161 33.147 120.377 32.9565 119.68 32.5755C118.995 32.1836 118.456 31.6338 118.064 30.9263C117.683 30.2187 117.492 29.4023 117.492 28.477C117.492 27.5408 117.683 26.719 118.064 26.0114C118.445 25.3038 118.978 24.7596 119.664 24.3786C120.35 23.9976 121.139 23.8071 122.032 23.8071C122.892 23.8071 123.659 23.9921 124.334 24.3622C125.02 24.7323 125.548 25.2603 125.918 25.9461C126.299 26.621 126.489 27.3993 126.489 28.2811ZM124.122 27.6279C124.111 27.0401 123.899 26.572 123.485 26.2237C123.071 25.8645 122.565 25.6848 121.966 25.6848C121.4 25.6848 120.921 25.859 120.53 26.2073C120.149 26.5448 119.914 27.0183 119.827 27.6279H124.122ZM127.57 28.4444C127.57 27.53 127.75 26.719 128.109 26.0114C128.479 25.3038 128.974 24.7596 129.595 24.3786C130.226 23.9976 130.928 23.8071 131.701 23.8071C132.376 23.8071 132.964 23.9431 133.465 24.2153C133.976 24.4874 134.385 24.8303 134.689 25.244V23.954H136.992V33H134.689V31.6774C134.395 32.1019 133.987 32.4557 133.465 32.7387C132.953 33.0109 132.36 33.147 131.685 33.147C130.923 33.147 130.226 32.951 129.595 32.5591C128.974 32.1672 128.479 31.6175 128.109 30.91C127.75 30.1915 127.57 29.3696 127.57 28.4444ZM134.689 28.477C134.689 27.9218 134.581 27.4483 134.363 27.0564C134.145 26.6537 133.851 26.3489 133.481 26.142C133.111 25.9243 132.714 25.8155 132.289 25.8155C131.865 25.8155 131.473 25.9189 131.113 26.1257C130.754 26.3325 130.46 26.6373 130.232 27.0401C130.014 27.432 129.905 27.9001 129.905 28.4444C129.905 28.9886 130.014 29.4676 130.232 29.8813C130.46 30.284 130.754 30.5943 131.113 30.812C131.484 31.0297 131.875 31.1386 132.289 31.1386C132.714 31.1386 133.111 31.0351 133.481 30.8283C133.851 30.6106 134.145 30.3058 134.363 29.9139C134.581 29.5111 134.689 29.0322 134.689 28.477ZM144.237 23.8234C145.315 23.8234 146.186 24.1663 146.85 24.8521C147.514 25.527 147.846 26.474 147.846 27.6932V33H145.56V28.0035C145.56 27.285 145.38 26.7353 145.021 26.3543C144.662 25.9624 144.172 25.7665 143.551 25.7665C142.92 25.7665 142.419 25.9624 142.049 26.3543C141.69 26.7353 141.51 27.285 141.51 28.0035V33H139.224V23.954H141.51V25.0807C141.815 24.6888 142.202 24.384 142.67 24.1663C143.149 23.9377 143.671 23.8234 144.237 23.8234ZM158.559 23.954V33H156.257V31.857C155.963 32.2489 155.577 32.5591 155.098 32.7877C154.63 33.0054 154.118 33.1143 153.563 33.1143C152.855 33.1143 152.229 32.9673 151.685 32.6734C151.141 32.3686 150.711 31.9278 150.395 31.3508C150.09 30.763 149.938 30.0663 149.938 29.2608V23.954H152.224V28.9342C152.224 29.6527 152.404 30.2078 152.763 30.5997C153.122 30.9807 153.612 31.1712 154.232 31.1712C154.864 31.1712 155.359 30.9807 155.718 30.5997C156.078 30.2078 156.257 29.6527 156.257 28.9342V23.954H158.559ZM165.828 23.8234C166.905 23.8234 167.776 24.1663 168.44 24.8521C169.104 25.527 169.436 26.474 169.436 27.6932V33H167.15V28.0035C167.15 27.285 166.971 26.7353 166.612 26.3543C166.252 25.9624 165.762 25.7665 165.142 25.7665C164.511 25.7665 164.01 25.9624 163.64 26.3543C163.281 26.7353 163.101 27.285 163.101 28.0035V33H160.815V23.954H163.101V25.0807C163.406 24.6888 163.792 24.384 164.26 24.1663C164.739 23.9377 165.262 23.8234 165.828 23.8234ZM172.77 22.8763C172.367 22.8763 172.029 22.7512 171.757 22.5008C171.496 22.2395 171.365 21.9184 171.365 21.5374C171.365 21.1564 171.496 20.8407 171.757 20.5903C172.029 20.3291 172.367 20.1985 172.77 20.1985C173.172 20.1985 173.504 20.3291 173.766 20.5903C174.038 20.8407 174.174 21.1564 174.174 21.5374C174.174 21.9184 174.038 22.2395 173.766 22.5008C173.504 22.7512 173.172 22.8763 172.77 22.8763ZM173.896 23.954V33H171.61V23.954H173.896ZM179.927 30.8936L182.213 23.954H184.646L181.298 33H178.522L175.191 23.954H177.641L179.927 30.8936ZM194.339 28.2811C194.339 28.6076 194.317 28.9015 194.273 29.1628H187.66C187.715 29.8159 187.943 30.3276 188.346 30.6977C188.749 31.0678 189.244 31.2529 189.832 31.2529C190.681 31.2529 191.285 30.8882 191.645 30.1588H194.11C193.849 31.0297 193.348 31.7481 192.608 32.3142C191.868 32.8694 190.959 33.147 189.881 33.147C189.01 33.147 188.226 32.9565 187.53 32.5755C186.844 32.1836 186.305 31.6338 185.913 30.9263C185.532 30.2187 185.342 29.4023 185.342 28.477C185.342 27.5408 185.532 26.719 185.913 26.0114C186.294 25.3038 186.828 24.7596 187.513 24.3786C188.199 23.9976 188.988 23.8071 189.881 23.8071C190.741 23.8071 191.508 23.9921 192.183 24.3622C192.869 24.7323 193.397 25.2603 193.767 25.9461C194.148 26.621 194.339 27.3993 194.339 28.2811ZM191.971 27.6279C191.96 27.0401 191.748 26.572 191.334 26.2237C190.921 25.8645 190.414 25.6848 189.816 25.6848C189.25 25.6848 188.771 25.859 188.379 26.2073C187.998 26.5448 187.764 27.0183 187.677 27.6279H191.971ZM198.293 25.3583C198.587 24.8793 198.968 24.5037 199.436 24.2316C199.915 23.9595 200.46 23.8234 201.069 23.8234V26.2237H200.465C199.747 26.2237 199.202 26.3924 198.832 26.7299C198.473 27.0673 198.293 27.6551 198.293 28.4933V33H196.007V23.954H198.293V25.3583ZM206.07 33.147C205.33 33.147 204.666 33.0163 204.078 32.7551C203.491 32.4829 203.023 32.1183 202.674 31.6611C202.337 31.2039 202.152 30.6977 202.119 30.1425H204.421C204.465 30.4909 204.634 30.7793 204.928 31.0079C205.232 31.2365 205.608 31.3508 206.054 31.3508C206.49 31.3508 206.827 31.2637 207.067 31.0896C207.317 30.9154 207.442 30.6922 207.442 30.4201C207.442 30.1262 207.29 29.9085 206.985 29.767C206.691 29.6146 206.217 29.4513 205.564 29.2771C204.889 29.1138 204.334 28.9451 203.899 28.7709C203.474 28.5968 203.104 28.3301 202.788 27.9708C202.484 27.6116 202.331 27.1272 202.331 26.5176C202.331 26.0168 202.473 25.5597 202.756 25.146C203.05 24.7323 203.463 24.4058 203.997 24.1663C204.541 23.9268 205.178 23.8071 205.907 23.8071C206.985 23.8071 207.845 24.0792 208.487 24.6235C209.129 25.1569 209.483 25.8808 209.548 26.7952H207.36C207.328 26.4359 207.175 26.1529 206.903 25.9461C206.642 25.7284 206.288 25.6195 205.842 25.6195C205.428 25.6195 205.107 25.6957 204.879 25.8481C204.661 26.0005 204.552 26.2128 204.552 26.4849C204.552 26.7897 204.704 27.0238 205.009 27.1871C205.314 27.3395 205.787 27.4973 206.43 27.6606C207.083 27.8239 207.622 27.9926 208.046 28.1668C208.471 28.3409 208.835 28.6131 209.14 28.9832C209.456 29.3424 209.619 29.8214 209.63 30.4201C209.63 30.9426 209.483 31.4107 209.189 31.8243C208.906 32.238 208.493 32.5646 207.948 32.8041C207.415 33.0327 206.789 33.147 206.07 33.147ZM212.666 22.8763C212.263 22.8763 211.926 22.7512 211.654 22.5008C211.392 22.2395 211.262 21.9184 211.262 21.5374C211.262 21.1564 211.392 20.8407 211.654 20.5903C211.926 20.3291 212.263 20.1985 212.666 20.1985C213.069 20.1985 213.401 20.3291 213.662 20.5903C213.934 20.8407 214.07 21.1564 214.07 21.5374C214.07 21.9184 213.934 22.2395 213.662 22.5008C213.401 22.7512 213.069 22.8763 212.666 22.8763ZM213.793 23.954V33H211.507V23.954H213.793ZM218.713 25.8318V30.2078C218.713 30.5126 218.783 30.7358 218.925 30.8773C219.077 31.0079 219.328 31.0732 219.676 31.0732H220.737V33H219.301C217.374 33 216.41 32.0638 216.41 30.1915V25.8318H215.333V23.954H216.41V21.717H218.713V23.954H220.737V25.8318H218.713ZM223.541 22.8763C223.138 22.8763 222.801 22.7512 222.529 22.5008C222.267 22.2395 222.137 21.9184 222.137 21.5374C222.137 21.1564 222.267 20.8407 222.529 20.5903C222.801 20.3291 223.138 20.1985 223.541 20.1985C223.944 20.1985 224.276 20.3291 224.537 20.5903C224.809 20.8407 224.945 21.1564 224.945 21.5374C224.945 21.9184 224.809 22.2395 224.537 22.5008C224.276 22.7512 223.944 22.8763 223.541 22.8763ZM224.668 23.954V33H222.382V23.954H224.668ZM235.335 28.2811C235.335 28.6076 235.314 28.9015 235.27 29.1628H228.657C228.711 29.8159 228.94 30.3276 229.343 30.6977C229.746 31.0678 230.241 31.2529 230.829 31.2529C231.678 31.2529 232.282 30.8882 232.641 30.1588H235.107C234.846 31.0297 234.345 31.7481 233.605 32.3142C232.864 32.8694 231.955 33.147 230.878 33.147C230.007 33.147 229.223 32.9565 228.526 32.5755C227.841 32.1836 227.302 31.6338 226.91 30.9263C226.529 30.2187 226.338 29.4023 226.338 28.477C226.338 27.5408 226.529 26.719 226.91 26.0114C227.291 25.3038 227.824 24.7596 228.51 24.3786C229.196 23.9976 229.985 23.8071 230.878 23.8071C231.738 23.8071 232.505 23.9921 233.18 24.3622C233.866 24.7323 234.394 25.2603 234.764 25.9461C235.145 26.621 235.335 27.3993 235.335 28.2811ZM232.968 27.6279C232.957 27.0401 232.745 26.572 232.331 26.2237C231.917 25.8645 231.411 25.6848 230.812 25.6848C230.246 25.6848 229.767 25.859 229.375 26.2073C228.994 26.5448 228.76 27.0183 228.673 27.6279H232.968ZM240.466 33.147C239.725 33.147 239.061 33.0163 238.473 32.7551C237.886 32.4829 237.418 32.1183 237.069 31.6611C236.732 31.2039 236.547 30.6977 236.514 30.1425H238.816C238.86 30.4909 239.029 30.7793 239.323 31.0079C239.627 31.2365 240.003 31.3508 240.449 31.3508C240.885 31.3508 241.222 31.2637 241.462 31.0896C241.712 30.9154 241.837 30.6922 241.837 30.4201C241.837 30.1262 241.685 29.9085 241.38 29.767C241.086 29.6146 240.613 29.4513 239.959 29.2771C239.284 29.1138 238.729 28.9451 238.294 28.7709C237.869 28.5968 237.499 28.3301 237.184 27.9708C236.879 27.6116 236.726 27.1272 236.726 26.5176C236.726 26.0168 236.868 25.5597 237.151 25.146C237.445 24.7323 237.858 24.4058 238.392 24.1663C238.936 23.9268 239.573 23.8071 240.302 23.8071C241.38 23.8071 242.24 24.0792 242.882 24.6235C243.524 25.1569 243.878 25.8808 243.944 26.7952H241.756C241.723 26.4359 241.57 26.1529 241.298 25.9461C241.037 25.7284 240.683 25.6195 240.237 25.6195C239.823 25.6195 239.502 25.6957 239.274 25.8481C239.056 26.0005 238.947 26.2128 238.947 26.4849C238.947 26.7897 239.099 27.0238 239.404 27.1871C239.709 27.3395 240.183 27.4973 240.825 27.6606C241.478 27.8239 242.017 27.9926 242.441 28.1668C242.866 28.3409 243.231 28.6131 243.535 28.9832C243.851 29.3424 244.014 29.8214 244.025 30.4201C244.025 30.9426 243.878 31.4107 243.584 31.8243C243.301 32.238 242.888 32.5646 242.343 32.8041C241.81 33.0327 241.184 33.147 240.466 33.147ZM246.914 33.1143C246.5 33.1143 246.157 32.9891 245.885 32.7387C245.624 32.4775 245.493 32.1564 245.493 31.7754C245.493 31.3944 245.624 31.0787 245.885 30.8283C246.157 30.5671 246.5 30.4364 246.914 30.4364C247.317 30.4364 247.649 30.5671 247.91 30.8283C248.171 31.0787 248.302 31.3944 248.302 31.7754C248.302 32.1564 248.171 32.4775 247.91 32.7387C247.649 32.9891 247.317 33.1143 246.914 33.1143ZM251.303 22.8763C250.9 22.8763 250.562 22.7512 250.29 22.5008C250.029 22.2395 249.898 21.9184 249.898 21.5374C249.898 21.1564 250.029 20.8407 250.29 20.5903C250.562 20.3291 250.9 20.1985 251.303 20.1985C251.705 20.1985 252.037 20.3291 252.299 20.5903C252.571 20.8407 252.707 21.1564 252.707 21.5374C252.707 21.9184 252.571 22.2395 252.299 22.5008C252.037 22.7512 251.705 22.8763 251.303 22.8763ZM252.429 23.954V33H250.143V23.954H252.429ZM259.701 23.8234C260.778 23.8234 261.649 24.1663 262.313 24.8521C262.977 25.527 263.309 26.474 263.309 27.6932V33H261.023V28.0035C261.023 27.285 260.844 26.7353 260.484 26.3543C260.125 25.9624 259.635 25.7665 259.015 25.7665C258.383 25.7665 257.883 25.9624 257.513 26.3543C257.153 26.7353 256.974 27.285 256.974 28.0035V33H254.688V23.954H256.974V25.0807C257.279 24.6888 257.665 24.384 258.133 24.1663C258.612 23.9377 259.135 23.8234 259.701 23.8234Z" fill="#2B3E96"/>
<path d="M69 44.9598V38.6465H69.4591V44.9598H69Z" fill="#2B3E96"/>
<path d="M74.3446 40.2477C74.6903 40.2371 75.0334 40.312 75.3432 40.4658C75.6312 40.6101 75.8647 40.8436 76.009 41.1316C76.1797 41.4731 76.2626 41.8519 76.25 42.2335V44.977H75.8024V42.268C75.8318 41.8291 75.6875 41.3962 75.4006 41.0627C75.2492 40.9169 75.0687 40.8046 74.8708 40.7334C74.673 40.6622 74.4624 40.6336 74.2527 40.6495C73.9212 40.6412 73.5931 40.7183 73.3 40.8733C73.036 41.0166 72.8218 41.2368 72.6859 41.5046C72.5467 41.8022 72.4817 42.1292 72.4965 42.4574V44.9597H72.0488V40.2477H72.4965V41.5506L72.4391 41.4071C72.5731 41.0456 72.8208 40.7375 73.145 40.529C73.51 40.3231 73.9261 40.2255 74.3446 40.2477Z" fill="#2B3E96"/>
<path d="M80.4514 44.994C80.0355 44.9991 79.6256 44.8942 79.2633 44.6898C78.9152 44.4929 78.6289 44.2027 78.4369 43.8518C78.2334 43.4693 78.127 43.0426 78.127 42.6093C78.127 42.176 78.2334 41.7493 78.4369 41.3667C78.6306 41.0171 78.9165 40.7273 79.2633 40.5288C79.6262 40.3264 80.036 40.2234 80.4514 40.2303C80.8435 40.223 81.2303 40.3222 81.5706 40.5173C81.905 40.7103 82.1792 40.9925 82.3626 41.3323C82.5626 41.7286 82.6612 42.1684 82.6496 42.6121C82.6614 43.0523 82.5628 43.4884 82.3626 43.8805C82.1835 44.2245 81.911 44.511 81.5763 44.707C81.2332 44.9002 80.8451 44.9992 80.4514 44.994ZM80.4514 44.5865C80.791 44.593 81.1261 44.5077 81.4213 44.3397C81.7049 44.1746 81.9373 43.9342 82.0929 43.6452C82.2553 43.324 82.3399 42.9692 82.3399 42.6093C82.3399 42.2494 82.2553 41.8945 82.0929 41.5733C81.9357 41.2856 81.7037 41.0456 81.4213 40.8789C81.1261 40.7108 80.791 40.6256 80.4514 40.6321C80.1136 40.6258 79.7804 40.7111 79.4872 40.8789C79.2018 41.0436 78.9675 41.2839 78.8099 41.5733C78.6475 41.8945 78.5629 42.2494 78.5629 42.6093C78.5629 42.9692 78.6475 43.324 78.8099 43.6452C78.9658 43.9359 79.2005 44.1766 79.4872 44.3397C79.7871 44.5116 80.1288 44.597 80.4744 44.5865H80.4514ZM82.3511 44.9595V43.4214L82.4315 42.6007L82.3396 41.7857V38.2847H82.8275V44.9595H82.3511Z" fill="#2B3E96"/>
<path d="M85.473 39.0998C85.4248 39.1004 85.3769 39.091 85.3325 39.0722C85.288 39.0535 85.2479 39.0257 85.2147 38.9907C85.1799 38.9586 85.1522 38.9195 85.1334 38.876C85.1146 38.8325 85.1052 38.7856 85.1057 38.7382C85.104 38.6898 85.1129 38.6416 85.1317 38.597C85.1505 38.5524 85.1789 38.5125 85.2147 38.4799C85.2479 38.4449 85.288 38.4172 85.3325 38.3984C85.3769 38.3797 85.4248 38.3703 85.473 38.3709C85.5226 38.369 85.5721 38.3772 85.6184 38.3949C85.6648 38.4127 85.7071 38.4396 85.7427 38.4742C85.7767 38.5079 85.8034 38.5482 85.8211 38.5926C85.8389 38.637 85.8474 38.6846 85.8461 38.7325C85.8468 38.8288 85.8097 38.9215 85.7427 38.9907C85.7082 39.0272 85.6663 39.0558 85.6197 39.0746C85.5732 39.0934 85.5231 39.102 85.473 39.0998ZM85.2492 44.9367V40.2476H85.6968V44.9424L85.2492 44.9367Z" fill="#2B3E96"/>
<path d="M89.4043 44.9941C89.0939 45.0005 88.7854 44.9438 88.4975 44.8276C88.2641 44.7306 88.0644 44.5669 87.9236 44.357C87.7852 44.1479 87.7132 43.9018 87.7169 43.651C87.7155 43.4241 87.7728 43.2007 87.8834 43.0025C88.0201 42.7875 88.2209 42.6209 88.4573 42.5261C88.7837 42.3889 89.1367 42.3261 89.4904 42.3425H91.2122V42.6926H89.4904C89.1301 42.6547 88.7685 42.7507 88.4745 42.9623C88.38 43.0463 88.3048 43.1499 88.2543 43.2659C88.2037 43.3818 88.179 43.5074 88.1818 43.6338C88.1776 43.7725 88.206 43.9102 88.2648 44.0358C88.3236 44.1615 88.4112 44.2715 88.5204 44.357C88.803 44.5515 89.1422 44.6464 89.4847 44.6267C89.8387 44.6371 90.1879 44.5433 90.489 44.357C90.7565 44.16 90.9569 43.8855 91.063 43.5707L91.1893 43.8806C91.0688 44.2132 90.8431 44.4973 90.5464 44.6899C90.2042 44.9019 89.8067 45.0077 89.4043 44.9941ZM91.0974 44.9596V43.8864V43.7257V41.9694C91.1107 41.7874 91.0859 41.6046 91.0247 41.4326C90.9634 41.2607 90.867 41.1034 90.7416 40.9708C90.4565 40.7236 90.0849 40.5997 89.7085 40.6264C89.3985 40.6246 89.0908 40.681 88.8017 40.7928C88.5408 40.8965 88.2985 41.0419 88.0843 41.2233L87.8604 40.8962C88.1088 40.6794 88.3975 40.5137 88.7098 40.4083C89.0335 40.2998 89.3729 40.2455 89.7142 40.2476C90.1997 40.2141 90.6792 40.3705 91.0515 40.6838C91.2174 40.8579 91.3449 41.0648 91.426 41.2911C91.5071 41.5175 91.5398 41.7583 91.5221 41.9981V44.9768L91.0974 44.9596Z" fill="#2B3E96"/>
<path d="M97.3865 44.9939C97.016 44.9968 96.6476 44.9387 96.2961 44.8217C96.0067 44.735 95.7387 44.5883 95.5098 44.3912L95.7164 44.0297C95.9294 44.2057 96.1724 44.3418 96.4338 44.4314C96.7449 44.5432 97.0732 44.5996 97.4038 44.5979C97.7741 44.6293 98.1451 44.5451 98.4655 44.3568C98.5685 44.2846 98.6521 44.1882 98.7091 44.0761C98.7662 43.9641 98.7949 43.8397 98.7927 43.714C98.7995 43.5468 98.7396 43.3837 98.6262 43.2606C98.498 43.1437 98.345 43.0573 98.1786 43.0081C97.9797 42.9435 97.7764 42.8937 97.5702 42.8588L96.9044 42.7268C96.6916 42.685 96.4852 42.6155 96.2903 42.5202C96.1136 42.4356 95.9614 42.3072 95.8484 42.1472C95.7256 41.9603 95.6653 41.7392 95.6762 41.5158C95.674 41.284 95.7442 41.0573 95.8771 40.8673C96.0205 40.6611 96.2195 40.4999 96.451 40.4024C96.7669 40.2783 97.1047 40.2197 97.4439 40.2302C97.7426 40.2312 98.0398 40.2717 98.3278 40.3507C98.5868 40.4175 98.8318 40.5302 99.051 40.6836L98.8443 41.0452C98.6464 40.8942 98.4199 40.7848 98.1786 40.7238C97.9358 40.6554 97.6847 40.6206 97.4325 40.6205C97.0792 40.5945 96.727 40.683 96.4281 40.873C96.3292 40.9457 96.249 41.0409 96.1942 41.1506C96.1393 41.2604 96.1113 41.3816 96.1124 41.5043C96.1047 41.6769 96.1644 41.8456 96.2788 41.975C96.4009 42.1009 96.553 42.1938 96.7208 42.2447C96.9214 42.3112 97.1267 42.363 97.3349 42.3997C97.5587 42.4399 97.7768 42.48 98.0006 42.5317C98.2107 42.5743 98.4149 42.6417 98.609 42.7326C98.7882 42.8104 98.943 42.9353 99.0567 43.0942C99.1784 43.2692 99.2426 43.4778 99.2404 43.691C99.2467 43.9323 99.1719 44.1688 99.028 44.3625C98.8684 44.5717 98.6508 44.7294 98.4024 44.816C98.0779 44.9383 97.7333 44.9986 97.3865 44.9939Z" fill="#2B3E96"/>
<path d="M104.062 44.9598V38.6465H104.447L108.935 44.3858H108.729V38.6465H109.188V44.9598H108.809L104.315 39.2204H104.522V44.9598H104.062Z" fill="#2B3E96"/>
<path d="M113.583 44.9939C113.163 45.001 112.749 44.896 112.384 44.6897C112.026 44.4886 111.729 44.1952 111.523 43.8402C111.319 43.4608 111.213 43.0369 111.213 42.6063C111.213 42.1757 111.319 41.7518 111.523 41.3723C111.722 41.0233 112.012 40.734 112.361 40.5344C112.725 40.3251 113.14 40.2199 113.56 40.2302C113.982 40.2217 114.398 40.3268 114.766 40.5344C115.126 40.7357 115.422 41.0339 115.621 41.3953C115.824 41.7748 115.931 42.1987 115.931 42.6292C115.931 43.0598 115.824 43.4837 115.621 43.8632C115.425 44.2164 115.138 44.5099 114.789 44.7126C114.418 44.9097 114.003 45.0066 113.583 44.9939ZM113.583 44.5864C113.923 44.592 114.258 44.5068 114.553 44.3396C114.84 44.1765 115.075 43.9358 115.23 43.6451C115.389 43.3228 115.471 42.9684 115.471 42.6092C115.471 42.2499 115.389 41.8955 115.23 41.5732C115.073 41.2838 114.839 41.0435 114.553 40.8787C114.255 40.717 113.922 40.6323 113.583 40.6323C113.244 40.6323 112.911 40.717 112.613 40.8787C112.331 41.0455 112.099 41.2854 111.942 41.5732C111.779 41.8944 111.695 42.2492 111.695 42.6092C111.695 42.9691 111.779 43.3239 111.942 43.6451C112.097 43.9341 112.33 44.1744 112.613 44.3396C112.909 44.5076 113.244 44.5928 113.583 44.5864Z" fill="#2B3E96"/>
<path d="M117.658 44.9938C117.608 44.993 117.558 44.9823 117.512 44.9623C117.465 44.9423 117.423 44.9133 117.388 44.8771C117.353 44.8408 117.325 44.798 117.307 44.7511C117.288 44.7041 117.279 44.654 117.28 44.6035C117.278 44.5542 117.287 44.5052 117.305 44.4596C117.324 44.4141 117.353 44.3731 117.389 44.3395C117.46 44.269 117.555 44.2295 117.655 44.2295C117.755 44.2295 117.851 44.269 117.922 44.3395C117.958 44.3731 117.987 44.4141 118.006 44.4596C118.024 44.5052 118.033 44.5542 118.031 44.6035C118.033 44.7045 117.995 44.8021 117.925 44.8751C117.855 44.9481 117.759 44.9908 117.658 44.9938Z" fill="#2B3E96"/>
<path d="M120.613 44.9597V38.8587L120.819 39.0768H119.098V38.6636H121.095V44.9769L120.613 44.9597Z" fill="#2B3E96"/>
<path d="M129.315 44.9997C128.872 45.0056 128.431 44.9257 128.018 44.7644C127.628 44.6109 127.273 44.3806 126.973 44.0872C126.675 43.8006 126.441 43.4545 126.285 43.0713C125.965 42.2599 125.965 41.3574 126.285 40.546C126.443 40.1644 126.678 39.8188 126.973 39.5301C127.271 39.2365 127.627 39.0078 128.018 38.8586C128.855 38.5374 129.781 38.5374 130.618 38.8586C131.005 39.0094 131.358 39.2357 131.657 39.5244C131.951 39.8128 132.184 40.1585 132.34 40.5403C132.669 41.3558 132.669 42.2672 132.34 43.0828C132.182 43.462 131.95 43.8056 131.657 44.0929C131.357 44.3815 131.004 44.6094 130.618 44.7644C130.203 44.9264 129.761 45.0063 129.315 44.9997ZM129.315 44.5808C129.696 44.5849 130.074 44.5147 130.429 44.3742C130.763 44.2457 131.068 44.0504 131.324 43.8002C131.708 43.3975 131.967 42.8917 132.069 42.3445C132.171 41.7973 132.111 41.2322 131.898 40.7182C131.766 40.3926 131.571 40.0961 131.324 39.8458C131.068 39.5956 130.763 39.4003 130.429 39.2719C129.712 38.9965 128.918 38.9965 128.202 39.2719C127.87 39.4043 127.567 39.6013 127.312 39.8516C127.057 40.1018 126.854 40.4003 126.715 40.7297C126.432 41.435 126.432 42.2225 126.715 42.9278C126.851 43.2602 127.053 43.5616 127.309 43.814C127.564 44.0665 127.868 44.2648 128.202 44.3971C128.557 44.5298 128.936 44.5922 129.315 44.5808Z" fill="#2B3E96"/>
<path d="M135.77 44.9596L133.658 40.2476H134.135L136.115 44.6898H135.897L137.923 40.2476H138.382L136.258 44.9424L135.77 44.9596Z" fill="#2B3E96"/>
<path d="M141.649 44.9939C141.211 45.0023 140.778 44.8975 140.392 44.6897C140.035 44.4896 139.74 44.196 139.537 43.8403C139.326 43.4658 139.219 43.0418 139.227 42.6121C139.218 42.1807 139.318 41.754 139.52 41.3724C139.707 41.0253 139.984 40.7356 140.323 40.5344C140.671 40.3294 141.068 40.2241 141.471 40.2302C141.873 40.2241 142.269 40.3251 142.619 40.523C142.956 40.7222 143.232 41.01 143.417 41.3552C143.618 41.7368 143.719 42.1635 143.71 42.5949C143.712 42.6139 143.712 42.6332 143.71 42.6523C143.71 42.6523 143.71 42.6924 143.71 42.7154H139.566V42.3653H143.469L143.291 42.5375C143.301 42.1959 143.221 41.8577 143.061 41.556C142.913 41.2672 142.686 41.0261 142.407 40.8605C142.128 40.695 141.807 40.6118 141.483 40.6205C141.155 40.6145 140.833 40.7021 140.553 40.8731C140.278 41.0349 140.055 41.2718 139.91 41.556C139.738 41.8567 139.647 42.1969 139.646 42.5432V42.6236C139.64 42.981 139.729 43.3338 139.904 43.6452C140.068 43.9367 140.31 44.1756 140.605 44.3339C140.92 44.5026 141.274 44.5875 141.632 44.5807C141.921 44.5834 142.208 44.5288 142.476 44.42C142.733 44.3127 142.96 44.1431 143.136 43.9264L143.394 44.2248C143.192 44.4799 142.927 44.6778 142.625 44.7988C142.316 44.928 141.984 44.9944 141.649 44.9939Z" fill="#2B3E96"/>
<path d="M145.648 44.9595V40.2474H146.079V41.5331L146.033 41.3896C146.149 41.0314 146.384 40.7237 146.699 40.5172C147.043 40.3057 147.442 40.1999 147.847 40.213V40.6492H147.738C147.511 40.6362 147.283 40.6731 147.072 40.7574C146.861 40.8417 146.671 40.9713 146.515 41.137C146.202 41.519 146.045 42.0045 146.073 42.4973V44.948L145.648 44.9595Z" fill="#2B3E96"/>
<path d="M150.888 44.9939C150.518 44.9969 150.15 44.9387 149.798 44.8217C149.509 44.735 149.241 44.5883 149.012 44.3913L149.218 44.0297C149.431 44.2057 149.674 44.3418 149.936 44.4314C150.247 44.5433 150.575 44.5996 150.906 44.5979C151.276 44.6293 151.647 44.5451 151.967 44.3568C152.07 44.2799 152.151 44.1787 152.204 44.0624C152.257 43.9462 152.28 43.8186 152.272 43.6911C152.278 43.5238 152.219 43.3608 152.105 43.2377C151.977 43.1207 151.824 43.0344 151.658 42.9851C151.457 42.92 151.252 42.8701 151.043 42.8359L150.383 42.7039C150.171 42.662 149.964 42.5926 149.769 42.4973C149.591 42.4122 149.437 42.284 149.322 42.1242C149.203 41.9356 149.145 41.7153 149.155 41.4929C149.153 41.2611 149.223 41.0343 149.356 40.8443C149.499 40.6381 149.699 40.4769 149.93 40.3794C150.246 40.2553 150.584 40.1967 150.923 40.2073C151.222 40.2082 151.519 40.2487 151.807 40.3278C152.066 40.3945 152.311 40.5073 152.53 40.6607L152.323 41.0223C152.125 40.8712 151.899 40.7619 151.658 40.7008C151.415 40.6324 151.164 40.5977 150.911 40.5975C150.558 40.5707 150.206 40.6593 149.907 40.8501C149.808 40.9228 149.728 41.0179 149.673 41.1277C149.618 41.2375 149.59 41.3587 149.591 41.4814C149.586 41.567 149.598 41.6528 149.627 41.7337C149.655 41.8146 149.7 41.8888 149.758 41.952C149.88 42.078 150.032 42.1708 150.2 42.2218C150.4 42.2883 150.606 42.3401 150.814 42.3767C151.032 42.4169 151.256 42.4571 151.48 42.5087C151.689 42.5522 151.894 42.6196 152.088 42.7096C152.267 42.7874 152.422 42.9124 152.536 43.0712C152.655 43.2531 152.713 43.4682 152.702 43.6853C152.708 43.9266 152.634 44.163 152.49 44.3568C152.33 44.566 152.113 44.7236 151.864 44.8102C151.553 44.9297 151.222 44.9919 150.888 44.9939Z" fill="#2B3E96"/>
<path d="M156.446 44.9939C156.01 45.0015 155.579 44.8968 155.195 44.6897C154.838 44.4896 154.542 44.1959 154.34 43.8403C154.129 43.4658 154.022 43.0418 154.03 42.6121C154.02 42.1807 154.121 41.754 154.323 41.3724C154.512 41.0195 154.794 40.7256 155.14 40.523C155.485 40.3205 155.879 40.2172 156.28 40.2245C156.682 40.2172 157.078 40.3183 157.428 40.5172C157.766 40.7161 158.044 41.0039 158.231 41.3494C158.433 41.731 158.533 42.1577 158.524 42.5891C158.526 42.6082 158.526 42.6274 158.524 42.6465C158.521 42.6674 158.521 42.6887 158.524 42.7096H154.38V42.3595H158.283L158.099 42.5317C158.111 42.1907 158.034 41.8525 157.875 41.5503C157.722 41.2648 157.495 41.0261 157.217 40.8597C156.939 40.6933 156.621 40.6054 156.297 40.6054C155.973 40.6054 155.655 40.6933 155.377 40.8597C155.099 41.0261 154.872 41.2648 154.719 41.5503C154.56 41.8568 154.481 42.1982 154.489 42.5432V42.6235C154.483 42.9802 154.57 43.3322 154.742 43.6451C154.909 43.9357 155.153 44.1742 155.448 44.3339C155.763 44.5026 156.117 44.5875 156.475 44.5807C156.762 44.584 157.047 44.5294 157.313 44.42C157.573 44.3144 157.802 44.1446 157.979 43.9264L158.237 44.2248C158.034 44.4788 157.769 44.6764 157.468 44.7988C157.144 44.934 156.797 45.0004 156.446 44.9939Z" fill="#2B3E96"/>
<path d="M161.582 44.9938C161.272 45.0002 160.963 44.9436 160.675 44.8274C160.442 44.7303 160.242 44.5666 160.101 44.3568C159.963 44.1476 159.891 43.9016 159.895 43.6508C159.893 43.4239 159.951 43.2005 160.061 43.0023C160.198 42.7873 160.399 42.6207 160.635 42.5259C160.961 42.3886 161.314 42.3259 161.668 42.3422H163.39V42.6923H161.668C161.308 42.6545 160.946 42.7505 160.652 42.9621C160.558 43.0461 160.483 43.1497 160.432 43.2656C160.381 43.3816 160.357 43.5071 160.36 43.6336C160.355 43.7722 160.384 43.91 160.443 44.0356C160.501 44.1612 160.589 44.2712 160.698 44.3568C160.981 44.5513 161.32 44.6462 161.662 44.6265C162.016 44.6369 162.366 44.5431 162.667 44.3568C162.934 44.1598 163.135 43.8852 163.241 43.5705L163.367 43.8804C163.247 44.2129 163.021 44.4971 162.724 44.6896C162.382 44.9017 161.984 45.0075 161.582 44.9938ZM163.275 44.9594V43.8861V43.7254V41.9692C163.288 41.7871 163.264 41.6043 163.202 41.4324C163.141 41.2604 163.045 41.1032 162.919 40.9705C162.634 40.7233 162.263 40.5995 161.886 40.6262C161.576 40.6243 161.269 40.6808 160.979 40.7926C160.719 40.8962 160.476 41.0416 160.262 41.2231L160.038 40.8959C160.287 40.6792 160.575 40.5134 160.888 40.4081C161.22 40.2925 161.569 40.2343 161.921 40.2359C162.406 40.2024 162.886 40.3588 163.258 40.6721C163.424 40.8462 163.551 41.053 163.632 41.2794C163.713 41.5058 163.746 41.7466 163.729 41.9864V44.9651L163.275 44.9594Z" fill="#2B3E96"/>
<path d="M167.281 44.9939C166.911 44.9968 166.542 44.9387 166.191 44.8217C165.901 44.735 165.633 44.5883 165.404 44.3912L165.611 44.0297C165.824 44.2057 166.067 44.3418 166.328 44.4314C166.639 44.5432 166.968 44.5996 167.298 44.5979C167.669 44.6293 168.04 44.5451 168.36 44.3568C168.463 44.2846 168.547 44.1882 168.604 44.0761C168.661 43.9641 168.689 43.8397 168.687 43.714C168.694 43.5468 168.634 43.3837 168.521 43.2606C168.393 43.1437 168.239 43.0573 168.073 43.0081C167.872 42.9429 167.667 42.893 167.459 42.8588L166.799 42.7268C166.586 42.685 166.38 42.6155 166.185 42.5202C166.007 42.4352 165.853 42.3069 165.737 42.1472C165.621 41.9579 165.565 41.7377 165.576 41.5158C165.572 41.2846 165.64 41.0578 165.772 40.8673C165.915 40.6611 166.114 40.4999 166.346 40.4024C166.661 40.2783 166.999 40.2197 167.338 40.2302C167.637 40.2312 167.934 40.2717 168.222 40.3507C168.481 40.4175 168.726 40.5302 168.945 40.6836L168.739 41.0452C168.541 40.8942 168.314 40.7848 168.073 40.7238C167.83 40.6554 167.579 40.6206 167.327 40.6205C166.975 40.5937 166.625 40.6823 166.328 40.873C166.228 40.9448 166.147 41.0396 166.091 41.1495C166.035 41.2593 166.006 41.3811 166.007 41.5043C166.002 41.59 166.014 41.6758 166.042 41.7566C166.071 41.8375 166.115 41.9118 166.173 41.975C166.295 42.1009 166.447 42.1938 166.615 42.2447C166.816 42.3112 167.021 42.363 167.229 42.3997C167.453 42.4399 167.671 42.48 167.895 42.5317C168.105 42.5752 168.309 42.6426 168.504 42.7326C168.683 42.8104 168.837 42.9353 168.951 43.0942C169.07 43.2761 169.129 43.4911 169.118 43.7083C169.124 43.9495 169.049 44.186 168.905 44.3798C168.746 44.5889 168.528 44.7466 168.28 44.8332C167.96 44.9475 167.621 45.002 167.281 44.9939Z" fill="#2B3E96"/>
<path d="M174.385 44.5465H178.27V44.9598H173.926V38.6465H178.133V39.0999H174.385V44.5465ZM174.328 41.5563H177.737V41.9696H174.328V41.5563Z" fill="#2B3E96"/>
<path d="M182.067 44.994C181.652 44.9989 181.244 44.8939 180.884 44.6898C180.534 44.4931 180.246 44.2029 180.052 43.8518C179.852 43.4681 179.748 43.0419 179.748 42.6093C179.748 42.1767 179.852 41.7505 180.052 41.3667C180.248 41.0169 180.536 40.7272 180.884 40.5288C181.245 40.3264 181.653 40.2234 182.067 40.2303C182.468 40.2178 182.866 40.3171 183.214 40.5173C183.549 40.7103 183.823 40.9925 184.006 41.3323C184.211 41.7271 184.312 42.1676 184.299 42.6121C184.308 43.052 184.21 43.4874 184.012 43.8805C183.831 44.2233 183.559 44.5093 183.226 44.707C182.872 44.9033 182.472 45.0023 182.067 44.994ZM182.095 44.5865C182.433 44.5922 182.766 44.507 183.059 44.3397C183.346 44.1766 183.581 43.9359 183.737 43.6452C183.899 43.324 183.984 42.9692 183.984 42.6093C183.984 42.2494 183.899 41.8945 183.737 41.5733C183.579 41.2839 183.345 41.0436 183.059 40.8789C182.763 40.7171 182.43 40.6324 182.092 40.6324C181.754 40.6324 181.422 40.7171 181.125 40.8789C180.842 41.044 180.609 41.2843 180.454 41.5733C180.291 41.8945 180.207 42.2494 180.207 42.6093C180.207 42.9692 180.291 43.324 180.454 43.6452C180.607 43.9361 180.84 44.177 181.125 44.3397C181.427 44.5118 181.771 44.5972 182.118 44.5865H182.095ZM183.989 44.9595V43.4214L184.07 42.6007L183.983 41.7857V38.2847H184.414V44.9595H183.989Z" fill="#2B3E96"/>
<path d="M188.775 44.994C188.414 45.0021 188.057 44.9274 187.73 44.7759C187.44 44.6303 187.203 44.3975 187.053 44.1101C186.882 43.7686 186.799 43.3898 186.812 43.0082V40.2476H187.282V42.9508C187.267 43.1687 187.296 43.3873 187.366 43.5942C187.435 43.8011 187.546 43.992 187.69 44.1561C187.842 44.3004 188.023 44.4117 188.221 44.4828C188.418 44.5539 188.628 44.5834 188.838 44.5693C189.158 44.5777 189.475 44.5004 189.756 44.3455C190.005 44.1951 190.204 43.9758 190.33 43.7141C190.474 43.4114 190.545 43.0792 190.537 42.7442V40.2476H190.99V44.9424H190.554V43.6338L190.617 43.7887C190.489 44.1456 190.247 44.4502 189.928 44.6554C189.587 44.8834 189.185 45.0016 188.775 44.994Z" fill="#2B3E96"/>
<path d="M195.283 44.9941C194.858 45.0005 194.438 44.8957 194.066 44.6899C193.713 44.4872 193.419 44.194 193.217 43.8405C193.006 43.4661 192.899 43.042 192.907 42.6123C192.898 42.177 193.005 41.7473 193.217 41.3668C193.419 41.016 193.713 40.7265 194.066 40.5289C194.439 40.3249 194.858 40.222 195.283 40.2305C195.637 40.224 195.988 40.2966 196.31 40.4428C196.617 40.5838 196.878 40.8086 197.062 41.0914L196.729 41.3324C196.572 41.1029 196.356 40.9204 196.104 40.8044C195.816 40.6793 195.504 40.621 195.191 40.6339C194.878 40.6468 194.572 40.7306 194.296 40.879C194.009 41.0437 193.773 41.2839 193.613 41.5735C193.449 41.8954 193.364 42.2513 193.364 42.6123C193.364 42.9733 193.449 43.3292 193.613 43.6511C193.773 43.9391 194.009 44.1775 194.296 44.3398C194.597 44.5077 194.938 44.5928 195.283 44.5866C195.565 44.5881 195.844 44.5314 196.104 44.4202C196.356 44.3019 196.572 44.1174 196.729 43.8864L197.062 44.1275C196.881 44.4128 196.619 44.6384 196.31 44.776C195.988 44.9241 195.637 44.9986 195.283 44.9941Z" fill="#2B3E96"/>
<path d="M200.22 44.9938C199.918 45.0008 199.617 44.9482 199.336 44.8389C199.102 44.7424 198.902 44.5786 198.762 44.3682C198.625 44.1586 198.555 43.9125 198.561 43.6623C198.557 43.4358 198.613 43.2124 198.722 43.0137C198.858 42.7988 199.059 42.6322 199.296 42.5374C199.622 42.4001 199.975 42.3374 200.329 42.3537H202.05V42.7038H200.329C199.966 42.665 199.603 42.7611 199.307 42.9736C199.212 43.0576 199.137 43.1612 199.087 43.2771C199.036 43.3931 199.011 43.5186 199.014 43.6451C199.01 43.7837 199.038 43.9214 199.097 44.0471C199.156 44.1727 199.244 44.2827 199.353 44.3682C199.635 44.5628 199.975 44.6577 200.317 44.638C200.671 44.6484 201.02 44.5546 201.322 44.3682C201.6 44.1745 201.812 43.9001 201.93 43.5819L202.05 43.8919C201.932 44.2255 201.706 44.5102 201.408 44.7011C201.051 44.9188 200.636 45.021 200.22 44.9938ZM201.941 44.9594V43.8861V43.7254V41.9692C201.954 41.7872 201.928 41.6047 201.867 41.4329C201.806 41.2611 201.71 41.1037 201.586 40.9705C201.298 40.7241 200.925 40.6005 200.547 40.6262C200.237 40.6243 199.929 40.6808 199.64 40.7926C199.381 40.8962 199.14 41.0417 198.928 41.2231L198.699 40.8959C198.947 40.6792 199.236 40.5134 199.548 40.4081C199.88 40.2925 200.23 40.2343 200.581 40.2359C201.067 40.2024 201.546 40.3588 201.918 40.6721C202.084 40.8462 202.212 41.053 202.293 41.2794C202.374 41.5058 202.407 41.7466 202.389 41.9864V44.9651L201.941 44.9594Z" fill="#2B3E96"/>
<path d="M203.961 40.6492V40.2474H206.796V40.632L203.961 40.6492ZM206.102 44.9939C205.928 45.005 205.753 44.9802 205.589 44.921C205.426 44.8617 205.276 44.7693 205.149 44.6495C205.036 44.5228 204.948 44.3749 204.892 44.2144C204.836 44.0539 204.812 43.8838 204.822 43.714V39.2373H205.275V43.691C205.259 43.9408 205.339 44.1874 205.499 44.3798C205.584 44.4638 205.685 44.5288 205.797 44.5704C205.909 44.6119 206.029 44.6291 206.148 44.6208C206.413 44.6308 206.672 44.5384 206.871 44.3626L207.06 44.6782C206.935 44.7937 206.786 44.8799 206.624 44.9308C206.454 44.9776 206.278 44.9989 206.102 44.9939Z" fill="#2B3E96"/>
<path d="M209.092 39.0997C209.044 39.1014 208.995 39.0925 208.951 39.0737C208.906 39.0548 208.866 39.0265 208.834 38.9906C208.799 38.9585 208.771 38.9195 208.752 38.876C208.734 38.8325 208.724 38.7855 208.725 38.7381C208.726 38.6411 208.765 38.5486 208.834 38.48C208.902 38.4114 208.995 38.3723 209.092 38.3708C209.14 38.3692 209.189 38.3775 209.234 38.3949C209.279 38.4124 209.32 38.4388 209.355 38.4726C209.39 38.5063 209.418 38.5467 209.436 38.5913C209.455 38.6359 209.465 38.6839 209.465 38.7324C209.464 38.8294 209.425 38.922 209.356 38.9906C209.323 39.027 209.282 39.0555 209.236 39.0744C209.19 39.0932 209.141 39.1018 209.092 39.0997ZM208.868 44.9366V40.2476H209.316V44.9424L208.868 44.9366Z" fill="#2B3E96"/>
<path d="M213.574 44.9943C213.152 45.0008 212.737 44.8959 212.369 44.6901C212.022 44.4849 211.734 44.192 211.536 43.8407C211.333 43.4612 211.227 43.0373 211.227 42.6067C211.227 42.1761 211.333 41.7522 211.536 41.3727C211.734 41.0241 212.021 40.7348 212.369 40.5348C212.739 40.3354 213.153 40.231 213.574 40.231C213.995 40.231 214.409 40.3354 214.779 40.5348C215.128 40.7332 215.415 41.0229 215.611 41.3727C215.811 41.7534 215.915 42.1768 215.915 42.6067C215.915 43.0365 215.811 43.46 215.611 43.8407C215.416 44.1938 215.128 44.4874 214.779 44.6901C214.411 44.8951 213.995 45 213.574 44.9943ZM213.574 44.5868C213.914 44.5924 214.248 44.5072 214.544 44.34C214.829 44.1773 215.062 43.9363 215.215 43.6455C215.378 43.3243 215.462 42.9695 215.462 42.6096C215.462 42.2497 215.378 41.8948 215.215 41.5736C215.062 41.2828 214.829 41.0418 214.544 40.8791C214.246 40.7174 213.913 40.6327 213.574 40.6327C213.235 40.6327 212.902 40.7174 212.604 40.8791C212.318 41.0418 212.085 41.2828 211.933 41.5736C211.77 41.8948 211.685 42.2497 211.685 42.6096C211.685 42.9695 211.77 43.3243 211.933 43.6455C212.085 43.9363 212.318 44.1773 212.604 44.34C212.899 44.508 213.234 44.5933 213.574 44.5868Z" fill="#2B3E96"/>
<path d="M220.145 40.2478C220.492 40.2379 220.837 40.3127 221.149 40.4659C221.434 40.6121 221.665 40.8453 221.809 41.1316C221.98 41.4732 222.063 41.852 222.05 42.2336V44.977H221.603V42.268C221.632 41.8291 221.488 41.3962 221.201 41.0628C221.049 40.9169 220.869 40.8047 220.671 40.7335C220.473 40.6623 220.263 40.6337 220.053 40.6495C219.721 40.6412 219.393 40.7183 219.1 40.8734C218.836 41.0167 218.622 41.2369 218.486 41.5047C218.336 41.8055 218.263 42.1388 218.274 42.4747V44.977H217.82V40.2478H218.274V41.5506L218.211 41.4071C218.345 41.0457 218.592 40.7375 218.917 40.529C219.29 40.3178 219.717 40.22 220.145 40.2478Z" fill="#2B3E96"/>
<path d="M227.457 44.9597V38.6465H229.718C230.182 38.6354 230.644 38.7214 231.073 38.899C231.43 39.0466 231.734 39.2987 231.945 39.6221C232.147 39.9711 232.253 40.367 232.253 40.77C232.253 41.173 232.147 41.5689 231.945 41.9179C231.734 42.243 231.43 42.497 231.073 42.6468C230.644 42.8243 230.182 42.9103 229.718 42.8993H227.71L227.916 42.6812V44.977L227.457 44.9597ZM227.916 42.7099L227.71 42.4861H229.718C230.268 42.5264 230.814 42.3675 231.256 42.0384C231.423 41.8744 231.556 41.6788 231.647 41.463C231.737 41.2472 231.784 41.0155 231.784 40.7815C231.784 40.5475 231.737 40.3158 231.647 40.1C231.556 39.8842 231.423 39.6886 231.256 39.5246C230.814 39.1955 230.268 39.0366 229.718 39.0769H227.71L227.916 38.8531V42.7099Z" fill="#2B3E96"/>
<path d="M234.264 44.9595V38.2847H234.711V44.9595H234.264Z" fill="#2B3E96"/>
<path d="M238.414 44.9938C238.106 44.9994 237.799 44.9428 237.513 44.8273C237.281 44.7277 237.082 44.5646 236.939 44.3567C236.805 44.1459 236.735 43.9006 236.738 43.6507C236.737 43.4238 236.794 43.2004 236.905 43.0022C237.038 42.7839 237.24 42.6163 237.479 42.5258C237.805 42.3886 238.158 42.3258 238.512 42.3422H240.234V42.6923H238.512C238.15 42.6535 237.786 42.7495 237.49 42.962C237.394 43.0524 237.317 43.1625 237.267 43.2848C237.217 43.4072 237.193 43.5389 237.198 43.6711C237.203 43.8034 237.236 43.933 237.295 44.0513C237.355 44.1695 237.439 44.2737 237.542 44.3567C237.822 44.5524 238.16 44.6475 238.5 44.6264C238.854 44.6368 239.204 44.543 239.505 44.3567C239.786 44.1661 239.999 43.8906 240.113 43.5704L240.239 43.8803C240.117 44.2116 239.892 44.4952 239.597 44.6896C239.242 44.9081 238.83 45.0141 238.414 44.9938ZM240.136 44.9593V43.8861V43.7254V41.9691C240.148 41.7872 240.123 41.6046 240.062 41.4328C240.001 41.2611 239.905 41.1037 239.78 40.9705C239.493 40.7229 239.12 40.5991 238.741 40.6261C238.431 40.6248 238.124 40.6812 237.835 40.7925C237.575 40.8962 237.335 41.0416 237.123 41.223L236.899 40.8959C237.146 40.6804 237.433 40.5147 237.743 40.408C238.075 40.2933 238.424 40.2351 238.776 40.2358C239.263 40.2027 239.744 40.3589 240.119 40.672C240.284 40.8466 240.41 41.0537 240.49 41.28C240.57 41.5064 240.602 41.7469 240.584 41.9863V44.9651L240.136 44.9593Z" fill="#2B3E96"/>
<path d="M242.156 40.6492V40.2474H244.963V40.632L242.156 40.6492ZM244.297 44.9939C244.124 45.0056 243.95 44.9811 243.787 44.9217C243.624 44.8624 243.475 44.7697 243.35 44.6495C243.237 44.5228 243.149 44.3749 243.093 44.2144C243.037 44.0539 243.013 43.8838 243.023 43.714V39.2373H243.471V43.691C243.454 43.9408 243.534 44.1874 243.694 44.3798C243.779 44.4635 243.881 44.5283 243.993 44.5698C244.105 44.6114 244.224 44.6288 244.343 44.6208C244.61 44.63 244.87 44.5377 245.072 44.3626L245.261 44.6782C245.136 44.7929 244.987 44.8791 244.825 44.9308C244.653 44.9772 244.475 44.9985 244.297 44.9939Z" fill="#2B3E96"/>
<path d="M246.277 40.6493V40.2476H249.084V40.6321L246.277 40.6493ZM247.138 44.9596V39.5416C247.124 39.1974 247.245 38.8612 247.477 38.6061C247.603 38.4816 247.754 38.3855 247.921 38.3241C248.087 38.2627 248.264 38.2376 248.441 38.2503C248.616 38.2493 248.79 38.2744 248.958 38.3249C249.111 38.3684 249.253 38.447 249.371 38.5545L249.187 38.8988C249.098 38.8072 248.987 38.7383 248.866 38.6979C248.734 38.6561 248.597 38.6348 248.458 38.6348C248.338 38.6264 248.218 38.6436 248.105 38.6851C247.992 38.7267 247.89 38.7917 247.804 38.8759C247.64 39.0729 247.56 39.3263 247.58 39.5818V44.9596H247.138Z" fill="#2B3E96"/>
<path d="M252.293 44.9939C251.873 45.001 251.459 44.896 251.093 44.6897C250.744 44.4853 250.455 44.1923 250.255 43.8402C250.052 43.4608 249.945 43.0369 249.945 42.6063C249.945 42.1757 250.052 41.7518 250.255 41.3723C250.455 41.0233 250.744 40.734 251.093 40.5344C251.458 40.3251 251.873 40.2199 252.293 40.2302C252.714 40.2217 253.131 40.3268 253.498 40.5344C253.846 40.7328 254.134 41.0225 254.33 41.3723C254.534 41.7518 254.64 42.1757 254.64 42.6063C254.64 43.0369 254.534 43.4608 254.33 43.8402C254.135 44.1934 253.847 44.487 253.498 44.6897C253.13 44.8947 252.714 44.9996 252.293 44.9939ZM252.293 44.5864C252.632 44.592 252.967 44.5068 253.263 44.3396C253.548 44.1769 253.781 43.9359 253.934 43.6451C254.097 43.3239 254.181 42.9691 254.181 42.6092C254.181 42.2492 254.097 41.8944 253.934 41.5732C253.787 41.2855 253.563 41.0448 253.286 40.8787C252.988 40.717 252.654 40.6323 252.316 40.6323C251.977 40.6323 251.643 40.717 251.346 40.8787C251.063 41.0455 250.831 41.2854 250.674 41.5732C250.512 41.8944 250.427 42.2492 250.427 42.6092C250.427 42.9691 250.512 43.3239 250.674 43.6451C250.83 43.9341 251.062 44.1744 251.346 44.3396C251.634 44.5036 251.961 44.5887 252.293 44.5864Z" fill="#2B3E96"/>
<path d="M256.574 44.9595V40.2474H257.005V41.5331L256.959 41.3896C257.075 41.0314 257.31 40.7237 257.625 40.5172C257.969 40.3057 258.368 40.1999 258.772 40.213V40.6492H258.663C258.436 40.6362 258.209 40.6731 257.998 40.7574C257.787 40.8417 257.597 40.9713 257.441 41.137C257.126 41.5176 256.968 42.0041 256.999 42.4973V44.948L256.574 44.9595Z" fill="#2B3E96"/>
<path d="M266.417 40.2476C266.759 40.2376 267.098 40.3126 267.404 40.4657C267.685 40.6142 267.912 40.847 268.053 41.1314C268.219 41.4745 268.299 41.8525 268.288 42.2334V44.9768H267.84V42.2678C267.868 41.8311 267.729 41.4001 267.45 41.0626C267.31 40.9209 267.141 40.8107 266.955 40.7395C266.769 40.6682 266.57 40.6375 266.371 40.6493C266.052 40.6408 265.737 40.7181 265.459 40.8732C265.21 41.024 265.011 41.2432 264.885 41.5045C264.74 41.8068 264.669 42.1393 264.678 42.4744V44.9768H264.19V42.2678C264.218 41.8311 264.078 41.4001 263.8 41.0626C263.66 40.9209 263.491 40.8107 263.305 40.7395C263.119 40.6682 262.92 40.6375 262.721 40.6493C262.402 40.6408 262.087 40.7181 261.808 40.8732C261.56 41.024 261.361 41.2432 261.234 41.5045C261.089 41.8068 261.018 42.1393 261.028 42.4744V44.9768H260.58V40.2476H261.011V41.5389L260.947 41.3954C261.077 41.0378 261.321 40.7331 261.642 40.5288C261.985 40.3136 262.384 40.2038 262.79 40.2131C263.211 40.1981 263.627 40.3211 263.972 40.5632C264.306 40.8243 264.524 41.2053 264.58 41.625L264.425 41.5561C264.55 41.1635 264.8 40.8227 265.137 40.5862C265.516 40.3383 265.965 40.2195 266.417 40.2476Z" fill="#2B3E96"/>
</svg>
